<?xml version="1.0" encoding="UTF-8" standalone="no"?>
<svg
   width="400"
   height="400"
   viewBox="0 0 400 400"
   fill="none"
   version="1.1"
   id="svg312"
   sodipodi:docname="duvida.svg"
   inkscape:version="1.1.2 (b8e25be833, 2022-02-05)"
   xmlns:inkscape="http://www.inkscape.org/namespaces/inkscape"
   xmlns:sodipodi="http://sodipodi.sourceforge.net/DTD/sodipodi-0.dtd"
   xmlns="http://www.w3.org/2000/svg"
   xmlns:svg="http://www.w3.org/2000/svg">
  <defs
     id="defs316" />
  <sodipodi:namedview
     id="namedview314"
     pagecolor="#505050"
     bordercolor="#eeeeee"
     borderopacity="1"
     inkscape:pageshadow="0"
     inkscape:pageopacity="0"
     inkscape:pagecheckerboard="0"
     showgrid="false"
     inkscape:zoom="2.8213561"
     inkscape:cx="217.98029"
     inkscape:cy="149.04181"
     inkscape:window-width="1920"
     inkscape:window-height="991"
     inkscape:window-x="-9"
     inkscape:window-y="-9"
     inkscape:window-maximized="1"
     inkscape:current-layer="svg312" />
  <path
     d="M46.2839 350.326L53.843 400H97.7593L107.954 351.05L46.2839 350.326Z"
     fill="#EBEBEB"
     id="path2" />
  <path
     d="M101.816 382.176C101.816 382.319 90.5577 382.435 76.6814 382.435C62.805 382.435 51.5468 382.319 51.5468 382.176C51.5468 382.033 62.7961 381.917 76.6814 381.917C90.5666 381.917 101.816 382.016 101.816 382.176Z"
     fill="#FAFAFA"
     id="path4" />
  <path
     d="M101.986 379.719C101.986 379.862 90.6559 379.979 76.6813 379.979C62.7067 379.979 51.377 379.862 51.377 379.719C51.377 379.576 62.7067 379.46 76.6813 379.46C90.6559 379.46 101.986 379.576 101.986 379.719Z"
     fill="#FAFAFA"
     id="path6" />
  <path
     d="M101.896 376.959C101.896 377.102 90.5665 377.218 76.5919 377.218C62.6173 377.218 51.2875 377.102 51.2875 376.959C51.2875 376.816 62.6173 376.7 76.5919 376.7C90.5665 376.7 101.896 376.816 101.896 376.959Z"
     fill="#FAFAFA"
     id="path8" />
  <path
     d="M58.8911 397.159C58.2684 395.115 57.8171 393.024 57.5421 390.905C57.0895 388.82 56.8086 386.702 56.7023 384.571C57.32 386.615 57.7711 388.707 58.0513 390.825C58.4934 392.911 58.7741 395.029 58.8911 397.159Z"
     fill="#FAFAFA"
     id="path10" />
  <path
     d="M61.8756 396.632C61.426 392.571 61.1488 388.494 61.0447 384.41C61.519 386.408 61.7885 388.45 61.8488 390.503C62.075 392.539 62.084 394.594 61.8756 396.632Z"
     fill="#FAFAFA"
     id="path12" />
  <path
     d="M67.3171 396.632C66.2855 392.511 65.79 388.274 65.8429 384.026C66.2589 386.092 66.5572 388.18 66.7364 390.28C67.0937 393.791 67.46 396.605 67.3171 396.632Z"
     fill="#FAFAFA"
     id="path14" />
  <path
     d="M71.1414 396.9C70.7269 394.805 70.5234 392.674 70.5339 390.539C70.3778 388.408 70.4437 386.268 70.7304 384.151C70.9597 386.266 71.0671 388.393 71.052 390.521C71.2028 392.644 71.2326 394.774 71.1414 396.9Z"
     fill="#FAFAFA"
     id="path16" />
  <path
     d="M77.9054 396.632C77.5858 394.638 77.4334 392.621 77.4497 390.601C77.2937 388.587 77.3116 386.564 77.5033 384.553C77.9766 388.561 78.1111 392.601 77.9054 396.632Z"
     fill="#FAFAFA"
     id="path18" />
  <path
     d="M82.8554 396.9C82.61 394.825 82.5382 392.733 82.641 390.646C82.5757 388.556 82.6802 386.465 82.9537 384.392C83.1931 386.468 83.2618 388.559 83.1592 390.646C83.2241 392.735 83.1225 394.827 82.8554 396.9Z"
     fill="#FAFAFA"
     id="path20" />
  <path
     d="M87.4839 396.23C87.4373 394.049 87.5628 391.869 87.8591 389.708C87.9921 387.532 88.2908 385.37 88.7525 383.24C88.673 387.596 88.2518 391.939 87.4928 396.23H87.4839Z"
     fill="#FAFAFA"
     id="path22" />
  <path
     d="M93.4615 395.577C93.6553 391.84 94.4549 388.159 95.829 384.678C95.5601 386.518 95.1843 388.34 94.7033 390.137C94.3874 391.971 93.9729 393.787 93.4615 395.577Z"
     fill="#FAFAFA"
     id="path24" />
  <path
     d="M89.2352 252.318L89.1816 252.568C89.119 252.756 89.0565 252.979 88.9761 253.265L88.1362 255.945C87.7609 257.107 87.3141 258.527 86.8495 260.198C86.3849 261.869 85.7862 263.772 85.268 265.862C84.7497 267.953 84.1064 270.276 83.5524 272.777C82.9985 275.279 82.4355 277.95 81.8637 280.773C80.8093 286.438 79.8443 292.701 79.1831 299.312C78.5219 305.923 78.2896 312.257 78.1645 318.011C78.1645 320.897 78.1645 323.631 78.236 326.195C78.3075 328.759 78.4237 331.135 78.5487 333.342C78.6738 335.549 78.8525 337.488 78.9866 339.212C79.1206 340.936 79.2636 342.419 79.4065 343.634C79.5495 344.849 79.6299 345.743 79.6924 346.422C79.6924 346.717 79.7461 346.958 79.755 347.154C79.7687 347.237 79.7687 347.322 79.755 347.404C79.7252 347.324 79.7071 347.24 79.7014 347.154C79.7014 346.967 79.6299 346.725 79.5852 346.44C79.4869 345.761 79.3618 344.831 79.201 343.652C79.0402 342.473 78.8436 340.972 78.6917 339.239C78.5398 337.505 78.2986 335.549 78.1735 333.369C78.0484 331.189 77.8697 328.804 77.8071 326.222C77.7446 323.64 77.691 320.915 77.6731 318.029C77.7356 312.257 78.0216 305.914 78.6649 299.267C79.3082 292.62 80.3179 286.366 81.3991 280.693C81.9888 277.87 82.5159 275.172 83.1861 272.652C83.8562 270.133 84.3745 267.837 84.9731 265.737C85.5718 263.638 86.1347 261.744 86.6351 260.082C87.1354 258.42 87.6001 257.009 88.0111 255.856C88.4221 254.704 88.708 253.855 88.9046 253.176C89.0029 252.899 89.0833 252.675 89.1548 252.497C89.1749 252.434 89.2019 252.375 89.2352 252.318Z"
     fill="#EBEBEB"
     id="path26" />
  <path
     d="M81.3008 283.079C82.5103 279.497 84.9265 276.446 88.1362 274.448C89.2173 273.778 90.5934 273.233 91.7103 273.787C93.2382 274.529 93.3633 276.682 92.9076 278.326C92.1172 281.106 90.3541 283.509 87.9396 285.098C85.7973 286.682 83.1158 287.356 80.4788 286.974"
     fill="#EBEBEB"
     id="path28" />
  <path
     d="M78.6381 303.842C79.7728 299.553 83.195 293.46 86.7423 290.807C87.2855 290.362 87.9109 290.028 88.5829 289.824C88.9221 289.729 89.2793 289.719 89.6234 289.793C89.9676 289.868 90.2882 290.026 90.5576 290.253C91.2813 290.949 91.2098 292.12 90.9954 293.094C90.2679 296.221 88.6839 299.085 86.4209 301.363C84.1579 303.642 81.3053 305.245 78.1824 305.995"
     fill="#EBEBEB"
     id="path30" />
  <path
     d="M77.9055 322.121C79.6658 318.026 82.4884 314.476 86.0811 311.838C86.4651 311.488 86.9148 311.217 87.4041 311.042C87.8934 310.868 88.4126 310.792 88.9314 310.819C90.4862 311.105 91.192 312.999 91.0491 314.572C90.7721 317.806 88.297 320.397 85.7505 322.407C83.0074 324.569 78.1824 326.293 78.1824 326.293"
     fill="#EBEBEB"
     id="path32" />
  <path
     d="M78.3164 335.263C80.0267 332.143 82.4031 329.437 85.2769 327.338C85.8929 326.884 86.6054 326.579 87.3588 326.445C87.7383 326.376 88.1295 326.412 88.4901 326.549C88.8507 326.686 89.167 326.919 89.4049 327.222C90.1019 328.25 89.4049 329.634 88.6901 330.617C86.2413 334.04 82.7634 336.591 78.7632 337.898"
     fill="#EBEBEB"
     id="path34" />
  <path
     d="M77.968 329.929C74.9737 326.249 71.6445 322.855 68.0232 319.789C67.4513 319.316 66.7455 318.815 66.0396 319.039C65.7774 319.152 65.5535 319.339 65.395 319.577C65.2365 319.815 65.1501 320.093 65.1461 320.379C65.1354 320.955 65.2641 321.525 65.5213 322.041C66.7098 324.684 68.479 327.025 70.6973 328.891C72.9156 330.756 75.526 332.098 78.3344 332.815"
     fill="#EBEBEB"
     id="path36" />
  <path
     d="M78.2896 312.82L70.4713 303.297C69.7872 302.335 68.9259 301.514 67.9337 300.875C67.4312 300.571 66.8548 300.41 66.2673 300.41C65.6798 300.41 65.1035 300.571 64.6009 300.875C64.1488 301.249 63.8093 301.741 63.62 302.296C63.4307 302.851 63.3991 303.448 63.5287 304.02C63.8146 305.152 64.3352 306.211 65.0566 307.129C66.5776 309.469 68.5053 311.517 70.7483 313.178C73.0446 314.759 75.1355 315.787 77.8964 315.376"
     fill="#EBEBEB"
     id="path38" />
  <path
     d="M79.3708 293.567C77.8394 289.008 75.1263 284.935 71.5079 281.765C70.9434 281.193 70.2375 280.78 69.4617 280.568C67.8891 280.264 66.3791 281.578 65.8877 283.088C65.6418 283.952 65.5784 284.859 65.7014 285.749C65.8245 286.64 66.1313 287.495 66.6025 288.261C67.5601 289.787 68.8114 291.108 70.2838 292.147C72.9149 294.161 75.8495 295.744 78.9777 296.837"
     fill="#EBEBEB"
     id="path40" />
  <path
     d="M82.498 276.405C81.7386 270.883 78.8614 266.282 75.5286 261.815C74.8317 260.868 73.8488 259.877 72.6872 260.028C72.3205 260.108 71.9794 260.277 71.6953 260.522C71.4112 260.768 71.1931 261.08 71.061 261.431C70.8004 262.136 70.6938 262.888 70.7483 263.638C70.8926 266.985 72.0195 270.215 73.9883 272.926C75.9571 275.636 78.6806 277.707 81.819 278.88"
     fill="#EBEBEB"
     id="path42" />
  <path
     d="M84.6872 267.64C84.3245 264.809 84.2287 261.949 84.4012 259.099C84.5763 256.232 85.5582 253.473 87.2337 251.139C87.9517 250.136 88.9358 249.353 90.0751 248.879C90.6467 248.649 91.2679 248.572 91.8785 248.653C92.4891 248.734 93.0682 248.972 93.5598 249.343C93.9748 249.732 94.2971 250.21 94.5028 250.74C94.7084 251.271 94.7923 251.84 94.7482 252.408C94.6473 253.542 94.3447 254.649 93.8546 255.678C91.7727 260.69 88.3059 266.238 84.6782 267.64"
     fill="#EBEBEB"
     id="path44" />
  <path
     d="M50.6353 274.225C50.6564 274.457 50.6564 274.69 50.6353 274.922C50.6353 275.431 50.6353 276.101 50.6353 276.923C50.6353 277.745 50.6353 278.862 50.6889 280.095C50.7425 281.327 50.6889 282.775 50.8319 284.294C50.9749 287.394 51.2697 291.093 51.7254 295.175C52.1811 299.258 52.9317 303.717 53.8877 308.362C54.8438 313.008 56.0322 317.377 57.2116 321.317C58.391 325.257 59.6241 328.75 60.7857 331.645C61.3218 333.11 61.8758 334.405 62.3314 335.549C62.7871 336.693 63.225 337.675 63.5645 338.47C63.904 339.266 64.1453 339.846 64.3508 340.32C64.4515 340.529 64.5323 340.748 64.592 340.972C64.4572 340.779 64.3434 340.573 64.2525 340.356L63.359 338.569C62.9837 337.783 62.528 336.782 62.0545 335.683C61.5809 334.584 60.9822 333.253 60.4283 331.797C59.2577 328.911 58.0158 325.409 56.7738 321.469C55.5318 317.529 54.397 313.142 53.4052 308.487C52.4134 303.833 51.8148 299.321 51.3769 295.229C50.9391 291.137 50.6711 287.421 50.5817 284.303C50.5013 282.748 50.5192 281.336 50.5013 280.104C50.4834 278.871 50.5013 277.799 50.5013 276.923C50.5013 276.047 50.5549 275.431 50.5728 274.922C50.5661 274.688 50.5871 274.454 50.6353 274.225Z"
     fill="#E0E0E0"
     id="path46" />
  <path
     d="M51.8594 296.864C51.9095 294.17 52.8949 291.577 54.6468 289.529C54.9013 289.149 55.2456 288.838 55.6492 288.622C56.0529 288.407 56.5034 288.295 56.9608 288.296C58.1669 288.475 58.7476 289.913 58.7476 291.128C58.8105 293.192 58.1286 295.208 56.8268 296.81C55.7036 298.343 54.0277 299.378 52.1542 299.696"
     fill="#E0E0E0"
     id="path48" />
  <path
     d="M54.5131 311.596C54.3612 308.434 55.4065 303.556 57.1934 300.983C57.4658 300.558 57.8214 300.194 58.2387 299.911C58.4497 299.774 58.6908 299.69 58.9413 299.666C59.1919 299.643 59.4443 299.681 59.6771 299.777C59.9659 299.988 60.1984 300.268 60.3541 300.59C60.5099 300.912 60.5842 301.268 60.5705 301.626C60.747 303.911 60.284 306.201 59.2331 308.238C58.1822 310.275 56.585 311.979 54.6203 313.16"
     fill="#E0E0E0"
     id="path50" />
  <path
     d="M57.9442 324.185C58.2629 321.016 59.4227 317.99 61.3035 315.42C61.4855 315.103 61.7283 314.824 62.018 314.6C62.3077 314.376 62.6387 314.212 62.992 314.116C64.1088 313.973 64.9933 315.117 65.2345 316.215C65.7437 318.476 64.618 320.772 63.3136 322.684C62.0663 324.291 60.6158 325.729 58.9984 326.963"
     fill="#E0E0E0"
     id="path52" />
  <path
     d="M61.0536 333.038C61.5436 330.546 62.5812 328.193 64.0913 326.15C64.4078 325.701 64.8236 325.331 65.3063 325.069C65.5502 324.94 65.8249 324.88 66.1005 324.895C66.3762 324.911 66.6423 325.002 66.8698 325.158C67.5667 325.703 67.4148 326.785 67.111 327.624C66.1787 330.481 64.3605 332.965 61.9203 334.718"
     fill="#E0E0E0"
     id="path54" />
  <path
     d="M59.6687 329.465C56.843 327.606 53.8519 326.012 50.7336 324.703C50.5081 324.566 50.2521 324.487 49.9887 324.473C49.7252 324.459 49.4624 324.51 49.2235 324.622C49.0674 324.756 48.9532 324.931 48.8945 325.128C48.8358 325.324 48.8353 325.533 48.8929 325.73C49.0132 326.12 49.221 326.478 49.5005 326.776C50.8792 328.32 52.5878 329.533 54.4997 330.327C56.4115 331.12 58.4775 331.473 60.5444 331.359"
     fill="#E0E0E0"
     id="path56" />
  <path
     d="M56.2109 317.77L48.8304 312.963C48.1576 312.463 47.3969 312.093 46.5877 311.873C46.1813 311.769 45.754 311.778 45.3524 311.899C44.9507 312.02 44.5899 312.249 44.3092 312.561C44.0814 312.914 43.9558 313.322 43.9463 313.742C43.9369 314.161 44.0439 314.575 44.2556 314.938C44.6993 315.644 45.2832 316.252 45.9712 316.725C47.5083 317.994 49.2647 318.972 51.1536 319.61C53.0567 320.2 54.7276 320.441 56.5146 319.61"
     fill="#E0E0E0"
     id="path58" />
  <path
     d="M52.8065 304.449C50.7795 301.673 48.0546 299.481 44.9078 298.097C44.3983 297.833 43.8284 297.706 43.2548 297.73C42.6976 297.857 42.2022 298.175 41.8546 298.629C41.507 299.082 41.3291 299.643 41.3516 300.214C41.3753 300.851 41.5295 301.476 41.8046 302.051C42.0797 302.626 42.4699 303.138 42.951 303.556C43.9307 304.388 45.0669 305.017 46.2928 305.405C48.5172 306.208 50.8539 306.657 53.2175 306.736"
     fill="#E0E0E0"
     id="path60" />
  <path
     d="M51.2339 292.066C49.5273 288.493 46.5787 285.955 43.3531 283.633C43.0513 283.34 42.678 283.131 42.2703 283.027C41.8626 282.924 41.435 282.929 41.03 283.043C40.7996 283.178 40.6058 283.368 40.4656 283.595C40.3254 283.822 40.2431 284.081 40.2258 284.347C40.2002 284.884 40.2886 285.42 40.4849 285.92C41.308 288.167 42.7732 290.123 44.6985 291.544C46.6238 292.966 48.9243 293.79 51.3143 293.916"
     fill="#E0E0E0"
     id="path62" />
  <path
     d="M50.8316 285.625C49.9748 283.775 49.2958 281.849 48.8036 279.871C48.3059 277.884 48.3802 275.796 49.018 273.85C49.2942 273.008 49.8021 272.262 50.4832 271.696C50.8239 271.418 51.2302 271.231 51.6635 271.155C52.0968 271.078 52.5424 271.114 52.958 271.259C53.3175 271.432 53.6349 271.682 53.8879 271.99C54.141 272.299 54.3237 272.659 54.4232 273.045C54.6019 273.84 54.6382 274.66 54.5304 275.467C54.1909 279.326 53.0205 283.847 50.8495 285.58"
     fill="#E0E0E0"
     id="path64" />
  <path
     d="M106.158 273.742C106.201 273.972 106.222 274.205 106.221 274.439C106.221 274.948 106.221 275.609 106.292 276.44C106.364 277.271 106.346 278.379 106.292 279.621C106.239 280.863 106.292 282.301 106.221 283.82C106.132 286.938 105.864 290.646 105.417 294.746C104.97 298.847 104.255 303.323 103.29 307.987C102.325 312.65 101.119 317.028 99.9127 320.977C98.7065 324.926 97.4287 328.41 96.2582 331.296C95.7043 332.752 95.1235 334.039 94.641 335.182C94.1585 336.326 93.7475 337.291 93.3275 338.068C92.9076 338.845 92.6752 339.417 92.434 339.855C92.3377 340.065 92.2273 340.268 92.1034 340.463C92.1578 340.236 92.2388 340.017 92.3446 339.81C92.5412 339.337 92.8003 338.729 93.1309 337.961C93.4615 337.193 93.8994 336.174 94.3551 335.039C94.8108 333.905 95.3737 332.6 95.9008 331.135C97.0267 328.241 98.2329 324.738 99.4749 320.807C100.717 316.876 101.807 312.499 102.79 307.853C103.773 303.207 104.452 298.74 104.952 294.666C105.453 290.592 105.73 286.893 105.846 283.784C105.944 282.23 105.953 280.827 105.998 279.585C106.042 278.343 106.051 277.289 105.998 276.413C105.944 275.538 105.998 274.921 105.998 274.412C106.027 274.184 106.081 273.959 106.158 273.742Z"
     fill="#EBEBEB"
     id="path66" />
  <path
     d="M104.933 296.408C104.881 293.713 103.892 291.12 102.137 289.073C101.881 288.694 101.537 288.384 101.134 288.169C100.73 287.954 100.28 287.841 99.8231 287.84C98.617 288.019 98.0363 289.458 98.0363 290.673C97.9791 292.736 98.6638 294.752 99.966 296.355C101.083 297.894 102.762 298.931 104.639 299.24"
     fill="#EBEBEB"
     id="path68" />
  <path
     d="M102.307 311.096C102.45 307.933 101.413 303.055 99.6264 300.482C99.3539 300.058 98.9983 299.693 98.5811 299.41C98.3717 299.273 98.1321 299.189 97.883 299.166C97.6339 299.143 97.3828 299.18 97.1516 299.276C96.8616 299.487 96.6283 299.766 96.4724 300.089C96.3165 300.411 96.2429 300.768 96.2582 301.126C96.0776 303.41 96.538 305.7 97.5876 307.738C98.6371 309.776 100.234 311.48 102.199 312.66"
     fill="#EBEBEB"
     id="path70" />
  <path
     d="M98.8396 323.702C98.5189 320.536 97.3627 317.511 95.4893 314.938C95.3025 314.617 95.0539 314.337 94.7579 314.113C94.4619 313.889 94.1244 313.726 93.765 313.633C92.6483 313.491 91.7638 314.634 91.5136 315.733C91.0133 317.993 92.139 320.289 93.4345 322.201C94.6818 323.808 96.1323 325.247 97.7497 326.481"
     fill="#EBEBEB"
     id="path72" />
  <path
     d="M95.7304 332.565C95.2415 330.071 94.2072 327.716 92.7017 325.668C92.3826 325.218 91.9637 324.848 91.4777 324.587C91.2338 324.457 90.9591 324.397 90.6835 324.413C90.4078 324.429 90.1418 324.52 89.9142 324.676C89.2263 325.221 89.3782 326.302 89.673 327.142C90.6053 329.998 92.4235 332.483 94.8638 334.236"
     fill="#EBEBEB"
     id="path74" />
  <path
     d="M97.1159 329C99.9439 327.146 102.935 325.552 106.051 324.238C106.277 324.104 106.533 324.026 106.796 324.012C107.059 323.998 107.322 324.048 107.561 324.158C107.721 324.289 107.838 324.463 107.898 324.66C107.959 324.858 107.96 325.068 107.901 325.266C107.775 325.655 107.564 326.012 107.284 326.311C105.906 327.856 104.198 329.07 102.286 329.864C100.374 330.657 98.3073 331.01 96.2403 330.894"
     fill="#EBEBEB"
     id="path76" />
  <path
     d="M100.583 317.287L107.954 312.481C108.628 311.982 109.389 311.613 110.197 311.391C110.603 311.286 111.031 311.295 111.432 311.417C111.834 311.538 112.195 311.767 112.476 312.079C112.705 312.43 112.832 312.839 112.842 313.259C112.851 313.679 112.743 314.094 112.529 314.455C112.09 315.166 111.506 315.775 110.814 316.242C109.277 317.509 107.524 318.49 105.64 319.137C103.737 319.718 102.066 319.968 100.279 319.137"
     fill="#EBEBEB"
     id="path78" />
  <path
     d="M103.987 303.949C106.015 301.173 108.739 298.982 111.886 297.597C112.395 297.33 112.965 297.204 113.539 297.23C114.094 297.359 114.588 297.677 114.934 298.131C115.279 298.584 115.456 299.144 115.433 299.714C115.417 300.356 115.267 300.988 114.991 301.568C114.716 302.148 114.321 302.664 113.834 303.082C112.855 303.913 111.723 304.545 110.501 304.94C108.273 305.74 105.933 306.186 103.567 306.263"
     fill="#EBEBEB"
     id="path80" />
  <path
     d="M105.551 291.584C107.257 288.01 110.206 285.482 113.441 283.15C114.12 282.659 115.004 282.194 115.755 282.56C115.999 282.693 116.205 282.885 116.354 283.12C116.502 283.355 116.588 283.623 116.604 283.901C116.622 284.437 116.53 284.972 116.335 285.473C115.516 287.721 114.053 289.677 112.129 291.099C110.205 292.521 107.904 293.345 105.515 293.469"
     fill="#EBEBEB"
     id="path82" />
  <path
     d="M105.952 285.151C106.806 283.3 107.487 281.374 107.989 279.398C108.48 277.406 108.403 275.317 107.766 273.367C107.495 272.528 106.993 271.782 106.319 271.214C105.98 270.935 105.575 270.748 105.143 270.673C104.71 270.598 104.266 270.637 103.853 270.785C103.489 270.954 103.168 271.202 102.913 271.511C102.658 271.82 102.475 272.183 102.379 272.572C102.205 273.367 102.169 274.186 102.272 274.993C102.611 278.853 103.781 283.373 105.952 285.116"
     fill="#EBEBEB"
     id="path84" />
  <path
     d="M41.2444 340.49V349.79C41.2444 350.271 41.3393 350.746 41.5235 351.19C41.7077 351.634 41.9777 352.038 42.318 352.377C42.6583 352.716 43.0622 352.985 43.5066 353.168C43.951 353.352 44.4272 353.445 44.9079 353.444H108.499C109.469 353.444 110.398 353.059 111.083 352.374C111.769 351.689 112.154 350.759 112.154 349.79V340.49H41.2444Z"
     fill="#EBEBEB"
     id="path86" />
  <path
     d="M46.7574 353.444L47.2846 356.401L105.962 360.582L107.454 353.444H46.7574Z"
     fill="#E0E0E0"
     id="path88" />
  <path
     d="M57.3098 127.624L43.9071 122.121C43.9071 122.121 39.2787 133.369 27.5111 128.759C25.2253 127.916 23.2597 126.381 21.8885 124.368C20.5173 122.355 19.809 119.964 19.8626 117.528C19.8754 115.482 20.3727 113.468 21.3139 111.651C22.2551 109.835 23.6133 108.266 25.2773 107.075C29.0837 104.261 35.6153 102.528 43.9875 107.835L56.2555 78.0126L43.0046 72.5627L35.7314 90.2524C35.7314 90.2524 15.1806 87.4203 6.77258 107.888C-1.26907 127.472 15.1001 139.524 24.2408 143.286C30.004 145.644 47.8475 151.362 57.3098 127.624Z"
     fill="#F5F5F5"
     id="path90" />
  <path
     d="M50.5754 53.7312L45.4143 66.2827L58.8597 71.8102L64.0209 59.2587L50.5754 53.7312Z"
     fill="#F5F5F5"
     id="path92" />
  <path
     d="M52.7708 125.766L39.3681 120.262C39.3681 120.262 34.7397 131.501 22.9721 126.9C20.6871 126.057 18.7221 124.522 17.3511 122.508C15.9801 120.495 15.2714 118.105 15.3236 115.67C15.3367 113.623 15.8351 111.608 16.7779 109.791C17.7207 107.974 19.081 106.407 20.7472 105.217C24.5536 102.403 30.9333 101.045 39.3055 106.352L51.7254 76.1542L38.4835 70.7043L31.2103 88.394C31.2103 88.394 10.6594 85.5619 2.23355 106.003C-5.80809 125.587 9.88204 137.38 17.4233 140.444C23.1508 142.812 43.3353 149.468 52.7708 125.766Z"
     fill="#E0E0E0"
     id="path94" />
  <path
     d="M46.0424 51.8425L40.8812 64.394L54.3266 69.9215L59.4878 57.37L46.0424 51.8425Z"
     fill="#E0E0E0"
     id="path96" />
  <path
     d="M374.267 356.83L365.966 357.518C365.966 357.518 366.547 364.487 359.309 365.219C357.916 365.383 356.507 365.11 355.276 364.438C354.045 363.766 353.053 362.728 352.438 361.467C351.905 360.418 351.628 359.258 351.628 358.081C351.628 356.904 351.905 355.744 352.438 354.695C353.653 352.256 356.548 349.656 362.222 350.174L360.694 331.68L352.474 332.368L353.367 343.331C353.367 343.331 342.1 347.271 343.155 359.957C344.164 372.099 355.717 373.984 361.382 373.51C365.001 373.242 375.643 371.455 374.267 356.83Z"
     fill="#F5F5F5"
     id="path98" />
  <path
     d="M360.144 322.27L351.782 322.939L352.407 330.747L360.769 330.078L360.144 322.27Z"
     fill="#F5F5F5"
     id="path100" />
  <path
     d="M371.452 357.045L363.142 357.741C363.142 357.741 363.723 364.71 356.486 365.434C355.095 365.602 353.685 365.332 352.455 364.661C351.225 363.99 350.235 362.951 349.624 361.69C349.091 360.641 348.813 359.481 348.813 358.304C348.813 357.127 349.091 355.967 349.624 354.918C350.839 352.479 353.752 350.112 359.452 350.63L357.898 331.868L349.686 332.556L350.58 343.518C350.58 343.518 339.312 347.449 340.367 360.145C341.376 372.286 352.501 374.207 357.156 373.814C360.748 373.555 372.828 371.688 371.452 357.045Z"
     fill="#E0E0E0"
     id="path102" />
  <path
     d="M356.965 320.249L348.631 320.942L349.278 328.723L357.612 328.031L356.965 320.249Z"
     fill="#E0E0E0"
     id="path104" />
  <path
     d="M326.026 55.6413L342.475 49.1462C342.475 49.1462 337.016 35.334 351.277 29.4196C354.004 28.2296 357.036 27.9206 359.948 28.5355C362.86 29.1505 365.507 30.6589 367.521 32.8503C369.239 34.6591 370.505 36.8482 371.216 39.2392C371.927 41.6302 372.063 44.1554 371.613 46.6089C370.639 52.3089 366.359 59.3669 354.502 61.797L368.968 98.427L385.239 92.0034L376.617 70.2666C376.617 70.2666 397.168 55.3644 387.214 30.2236C377.707 6.17286 353.081 9.43383 341.85 13.8741C334.791 16.6616 314.249 26.7393 326.026 55.6413Z"
     fill="#F5F5F5"
     id="path106" />
  <path
     d="M388.452 99.5612L371.939 106.082L378.027 121.496L394.54 114.976L388.452 99.5612Z"
     fill="#F5F5F5"
     id="path108" />
  <path
     d="M319.432 58.2326L335.89 51.7375C335.89 51.7375 330.431 37.9253 344.691 32.0108C347.417 30.8177 350.446 30.5043 353.358 31.1145C356.27 31.7246 358.919 33.2279 360.935 35.4148C362.656 37.2276 363.923 39.4213 364.634 41.817C365.345 44.2127 365.48 46.7425 365.028 49.2002C364.107 54.9002 359.64 61.4936 347.756 63.9237L362.41 101.009L378.672 94.5857L370.094 72.8578C370.094 72.8578 390.582 57.9557 380.646 32.8506C371.148 8.7284 347.372 11.6945 338.133 15.3397C331.047 18.1271 307.691 29.3306 319.432 58.2326Z"
     fill="#E0E0E0"
     id="path110" />
  <path
     d="M381.892 102.146L365.379 108.667L371.467 124.081L387.98 117.561L381.892 102.146Z"
     fill="#E0E0E0"
     id="path112" />
  <path
     d="M192.604 36.3812C194.118 19.3216 181.486 4.26259 164.39 2.74601C147.294 1.22943 132.208 13.8296 130.694 30.8892C129.181 47.9488 141.813 63.0078 158.908 64.5243C176.004 66.0409 191.09 53.4408 192.604 36.3812Z"
     fill="white"
     id="path114" />
  <path
     d="M181.607 57.4283L181.991 57.1066L183.081 56.0792L183.885 55.3377C184.171 55.0607 184.457 54.7212 184.779 54.3638L185.806 53.2203C186.181 52.7739 186.533 52.3087 186.861 51.8265C188.653 49.4089 190.064 46.7302 191.042 43.8841C192.379 40.121 192.971 36.1337 192.785 32.1446C192.785 31.5907 192.722 31.0278 192.695 30.4649C192.669 29.9021 192.526 29.3392 192.445 28.7585C192.365 28.1778 192.302 27.606 192.15 27.0342C191.998 26.4624 191.856 25.8817 191.713 25.2474L191.203 23.5946V23.4963C190.998 22.9156 190.783 22.3259 190.578 21.7095C190.372 21.093 190.042 20.5659 189.774 19.9852C189.514 19.3916 189.215 18.8156 188.88 18.2609C188.228 17.1059 187.5 15.9956 186.7 14.9374C186.289 14.4103 185.905 13.8474 185.458 13.3292L183.537 11.2476L183.331 11.051L182.545 10.3541C182.009 9.8985 181.491 9.40712 180.937 8.96041C179.798 8.08117 178.604 7.27546 177.363 6.54819C176.083 5.80136 174.755 5.14172 173.387 4.57374C172.681 4.29678 171.957 4.08236 171.242 3.82327C170.885 3.71606 170.527 3.56418 170.161 3.47483L168.982 3.36762C167.778 3.06064 166.553 2.8397 165.318 2.70649L163.451 2.47421L161.44 2.3938H160.851L159.653 2.45634L158.456 2.52781L157.268 2.69756L156.07 2.88518L155.472 2.97452L154.882 3.11747L150.495 4.44866L150.191 4.55587C147.089 5.81253 144.194 7.52929 141.604 9.64834C139.061 11.8275 136.862 14.3787 135.082 17.2156L134.939 17.4657C134.367 18.6004 133.429 20.4497 132.848 21.5844L132.606 22.1383L132.41 22.7101L132.017 23.9162L131.633 25.0598L131.365 26.2302L131.088 27.3916L130.953 27.9723L130.685 29.9646L130.516 31.8319C130.426 33.0691 130.426 34.3112 130.516 35.5485L130.578 36.6921C130.578 37.0762 130.685 37.4515 130.73 37.8267C130.855 38.5772 130.945 39.3276 131.096 40.0602C131.41 41.511 131.825 42.938 132.338 44.3308C132.85 45.6923 133.447 47.0202 134.125 48.3065C134.465 48.9319 134.858 49.5215 135.216 50.0933L135.761 50.9867L135.921 51.219L137.628 53.4704C138.066 54.0065 138.522 54.48 139.004 54.9803C139.903 55.9392 140.867 56.8347 141.89 57.6605C142.373 58.1055 142.88 58.5231 143.409 58.9113C143.936 59.2687 144.437 59.6618 144.973 59.9924L146.599 60.9305L148.207 61.7524L149.851 62.485C150.391 62.7135 150.943 62.9133 151.504 63.0836C152.049 63.2623 152.594 63.4588 153.131 63.6196L154.775 64.0038C158.671 64.8828 162.7 64.9981 166.641 64.3433C169.614 63.876 172.498 62.9539 175.191 61.6094C175.724 61.3734 176.243 61.1079 176.746 60.8143L178.051 60.0102C178.453 59.7601 178.837 59.5367 179.168 59.3134L180.061 58.6433L181.223 57.7499C181.491 57.5444 181.616 57.4283 181.616 57.4283L181.205 57.7231L180.016 58.6165C179.748 58.8041 179.462 59.0275 179.123 59.2598C178.783 59.492 178.408 59.6975 178.006 59.9477L176.693 60.7339C176.185 61.0196 175.663 61.2791 175.129 61.5112C172.447 62.8031 169.585 63.6826 166.641 64.1199C162.726 64.7459 158.728 64.6125 154.864 63.7268L153.238 63.3695C152.693 63.2087 152.166 63.0121 151.621 62.8334C151.075 62.6547 150.513 62.4939 149.985 62.2348L148.359 61.5022L146.822 60.716H146.751L145.151 59.8226C144.615 59.492 144.124 59.0989 143.606 58.7416C143.073 58.3861 142.563 57.9982 142.078 57.5801C141.066 56.7543 140.114 55.8587 139.227 54.8999C138.781 54.4085 138.334 53.935 137.869 53.4079L136.181 51.1654C136.125 51.0945 136.074 51.0199 136.029 50.9421L135.484 50.0486C135.135 49.45 134.742 48.8693 134.411 48.2618C133.755 46.9902 133.182 45.6771 132.696 44.3308C132.179 42.9179 131.764 41.4698 131.454 39.9977C131.302 39.274 131.222 38.5325 131.096 37.791C131.052 37.4157 130.962 37.0494 130.945 36.6742L130.9 35.5306C130.802 33.9985 130.802 32.4617 130.9 30.9295C131.007 30.1612 131.114 29.3928 131.213 28.6156L131.293 28.0349L131.427 27.4631L131.695 26.3195L131.972 25.1581L132.347 24.0323L132.732 22.8977L132.928 22.3349L133.169 21.7809L135.269 17.6623L135.403 17.4389C138.88 11.7543 144.12 7.36197 150.325 4.9311L150.611 4.82389L154.962 3.51057L155.543 3.35869L156.133 3.26935L157.321 3.09066L158.492 2.91198L159.68 2.84944L160.859 2.7869H161.449H162.03L164.362 2.87624C165.888 3.03361 167.401 3.29329 168.892 3.65352L170 3.91261C170.366 3.99302 170.715 4.1449 171.072 4.25211C171.778 4.50226 172.502 4.71668 173.19 4.98471C174.546 5.54672 175.863 6.20043 177.13 6.94129C178.374 7.65209 179.568 8.44606 180.704 9.31778C181.258 9.75555 181.768 10.2112 182.295 10.6936L183.081 11.3816L183.278 11.5692L185.181 13.624C185.628 14.1333 186.012 14.6961 186.423 15.2143C187.215 16.28 187.938 17.3962 188.585 18.5557C188.913 19.1082 189.211 19.6778 189.479 20.2621C189.738 20.8339 190.042 21.3878 190.274 21.9686L190.899 23.7107C191.007 23.9966 191.114 24.2825 191.212 24.6041V24.6845C191.427 25.5333 191.641 26.3731 191.856 27.195C192.016 27.7668 192.052 28.3475 192.159 28.9104C192.267 29.4733 192.338 30.045 192.409 30.599C192.481 31.1529 192.472 31.7157 192.499 32.2607C192.702 36.2186 192.134 40.1781 190.828 43.9198C189.871 46.7541 188.488 49.4262 186.727 51.8444C186.351 52.3358 186.066 52.845 185.69 53.2471L184.69 54.2924C184.377 54.6497 184.1 54.9892 183.796 55.2751L183.01 56.0256L181.937 57.0352C181.723 57.3032 181.607 57.4283 181.607 57.4283Z"
     fill="#E0E0E0"
     id="path116" />
  <path
     d="M188.138 74.5463C187.621 75.2324 186.938 75.7756 186.153 76.1249C185.368 76.4743 184.507 76.6182 183.651 76.5431C182.794 76.4681 181.972 76.1765 181.259 75.6959C180.547 75.2153 179.969 74.5614 179.579 73.7958C179.149 72.957 178.965 72.0142 179.047 71.0755C179.13 70.1369 179.475 69.2404 180.043 68.4889C180.861 67.4551 182.049 66.7813 183.356 66.6108C184.663 66.4404 185.985 66.7869 187.04 67.5765C188.096 68.3661 188.801 69.5364 189.006 70.8383C189.211 72.1401 188.9 73.4705 188.138 74.5463Z"
     fill="white"
     id="path118" />
  <path
     d="M187.334 75.3862C187.334 75.3862 187.433 75.3326 187.593 75.1985C187.833 74.9978 188.049 74.77 188.237 74.5195C188.828 73.7297 189.178 72.7861 189.246 71.8021C189.315 70.818 189.097 69.8352 188.621 68.9714C188.167 68.1572 187.504 67.4787 186.7 67.0059C185.811 66.4778 184.782 66.2346 183.751 66.309C182.639 66.3702 181.577 66.7896 180.724 67.5047C179.87 68.2197 179.271 69.1919 179.016 70.2758C178.769 71.2797 178.828 72.3345 179.185 73.3045C179.511 74.1777 180.063 74.9485 180.785 75.538C181.414 76.0469 182.155 76.399 182.947 76.5655C184.087 76.8137 185.277 76.659 186.316 76.1277C186.597 75.9907 186.858 75.8164 187.093 75.6095C187.263 75.4755 187.343 75.3951 187.334 75.3862C187.325 75.3772 186.968 75.6631 186.253 75.9937C185.234 76.4569 184.089 76.5669 183.001 76.3064C182.371 76.1564 181.777 75.8836 181.253 75.5034C180.729 75.1233 180.286 74.6434 179.948 74.0914C179.61 73.5393 179.384 72.9259 179.284 72.2865C179.184 71.647 179.211 70.9941 179.364 70.3652C179.61 69.3588 180.17 68.4571 180.964 67.7918C181.758 67.1264 182.744 66.7321 183.778 66.6664C184.739 66.5992 185.698 66.8233 186.53 67.3097C187.273 67.7373 187.889 68.3538 188.317 69.0965C188.782 69.9135 189.007 70.8456 188.964 71.7848C188.921 72.7241 188.613 73.632 188.076 74.4034C187.665 75.0824 187.299 75.3594 187.334 75.3862Z"
     fill="#E0E0E0"
     id="path120" />
  <path
     d="M152.13 28.5442H156.812C156.809 28.0091 156.914 27.479 157.121 26.9852C157.327 26.4915 157.63 26.0443 158.013 25.6701C158.395 25.2959 158.849 25.0024 159.347 24.807C159.846 24.6117 160.378 24.5184 160.913 24.5328C161.703 24.5041 162.483 24.7229 163.143 25.1585C163.803 25.5942 164.31 26.225 164.594 26.9628C164.841 27.5778 164.938 28.2422 164.879 28.902C164.82 29.5618 164.606 30.1984 164.255 30.7599C163.46 32.0732 161.717 33.2704 158.554 32.7164V43.3034H163.192V37.0495C165.098 36.4916 166.768 35.3229 167.945 33.7232C169.122 32.1235 169.74 30.1814 169.705 28.1958C169.705 21.3254 163.549 19.7351 160.913 19.7351C158.903 19.7798 152.04 20.2622 152.13 28.5442Z"
     fill="#E0E0E0"
     id="path122" />
  <path
     d="M163.253 45.4834H158.545V49.8879H163.253V45.4834Z"
     fill="#E0E0E0"
     id="path124" />
  <path
     d="M98.2597 161.181H102.96C102.957 160.645 103.062 160.115 103.268 159.622C103.475 159.128 103.778 158.681 104.161 158.306C104.543 157.932 104.997 157.639 105.495 157.443C105.993 157.248 106.526 157.155 107.061 157.169C107.849 157.142 108.625 157.36 109.283 157.794C109.941 158.228 110.448 158.856 110.733 159.59C110.984 160.205 111.084 160.871 111.027 161.533C110.969 162.195 110.755 162.833 110.403 163.396C109.607 164.71 107.856 165.907 104.693 165.344V175.931H109.339V169.731C111.245 169.173 112.916 168.004 114.092 166.404C115.269 164.805 115.888 162.862 115.853 160.877C115.853 154.006 109.697 152.407 107.061 152.407C105.042 152.407 98.1704 152.899 98.2597 161.181Z"
     fill="#E0E0E0"
     id="path126" />
  <path
     d="M109.392 178.12H104.684V182.524H109.392V178.12Z"
     fill="#E0E0E0"
     id="path128" />
  <path
     d="M308.969 195.533L303.706 192.191C303.706 192.191 300.891 196.658 296.245 193.773C295.334 193.243 294.612 192.44 294.181 191.479C293.75 190.517 293.631 189.445 293.841 188.412C294 187.545 294.362 186.727 294.898 186.027C295.434 185.326 296.128 184.763 296.924 184.383C298.756 183.489 301.57 183.382 304.724 186.259L312.266 174.377L307.056 171.062L302.634 178.031C302.634 178.031 294.127 175.279 289.007 183.329C284.111 191.039 289.901 197.212 292.85 199.097C295.11 200.554 303.17 204.896 308.969 195.533Z"
     fill="#E0E0E0"
     id="path130" />
  <path
     d="M311.695 163.671L308.557 168.611L313.844 171.968L316.982 167.029L311.695 163.671Z"
     fill="#E0E0E0"
     id="path132" />
  <path
     d="M100.261 30.5097L95.8919 32.234C96.0933 32.7298 96.1926 33.2612 96.1838 33.7962C96.1749 34.3313 96.0581 34.8591 95.8403 35.348C95.6226 35.8369 95.3083 36.2768 94.9165 36.6413C94.5246 37.0058 94.0632 37.2875 93.5598 37.4694C92.8371 37.7891 92.0325 37.8749 91.2587 37.7147C90.4848 37.5545 89.7804 37.1564 89.2441 36.576C88.7873 36.0961 88.451 35.5146 88.263 34.8792C88.075 34.2439 88.0408 33.5731 88.163 32.9219C88.4221 31.4031 89.6015 29.652 92.7556 29.0087L88.8599 19.1812L84.5442 20.8876L86.8227 26.5965C85.255 27.8167 84.1314 29.5179 83.6245 31.4386C83.1176 33.3594 83.2555 35.3934 84.0171 37.2282C86.5368 43.6161 92.8539 42.8388 95.3022 41.8739C97.1785 41.1592 103.388 38.2109 100.261 30.5097Z"
     fill="#E0E0E0"
     id="path134" />
  <path
     d="M86.5381 12.7412L82.1593 14.4832L83.7891 18.5793L88.1679 16.8374L86.5381 12.7412Z"
     fill="#E0E0E0"
     id="path136" />
  <path
     d="M400 397.775C400 397.9 311.542 398.008 202.39 398.008C93.2381 398.008 4.76221 397.9 4.76221 397.775C4.76221 397.65 93.2203 397.543 202.39 397.543C311.56 397.543 400 397.641 400 397.775Z"
     fill="#263238"
     id="path138" />
  <path
     d="M336.408 240.266L329.537 237.193L370.451 185.678L377.126 187.528C378.123 187.803 379.014 188.373 379.681 189.163L386.329 196.989C386.788 197.53 387.013 198.23 386.956 198.937C386.899 199.644 386.564 200.299 386.025 200.759L340.099 239.739C339.597 240.167 338.983 240.444 338.33 240.538C337.677 240.631 337.01 240.537 336.408 240.266Z"
     fill="#455A64"
     id="path140" />
  <path
     d="M382.809 236.639L375.375 242.893C374.968 243.24 374.477 243.472 373.951 243.566C373.425 243.661 372.883 243.613 372.381 243.429L366.788 241.436C366.091 241.177 365.513 240.672 365.162 240.016L334.729 182.65L341.591 184.642C342.476 184.9 343.265 185.413 343.86 186.116L383.13 232.377C383.651 232.986 383.91 233.776 383.85 234.574C383.789 235.373 383.415 236.115 382.809 236.639Z"
     fill="#455A64"
     id="path142" />
  <g
     opacity="0.3"
     id="g148">
    <path
       d="M336.408 240.266L329.537 237.193L370.451 185.678L377.126 187.528C378.123 187.802 379.014 188.372 379.681 189.163L386.329 196.989C386.788 197.53 387.013 198.23 386.956 198.937C386.899 199.643 386.564 200.299 386.025 200.759L340.099 239.739C339.597 240.167 338.983 240.444 338.33 240.537C337.677 240.631 337.01 240.537 336.408 240.266Z"
       fill="black"
       id="path144" />
    <path
       d="M382.809 236.639L375.375 242.893C374.968 243.24 374.477 243.472 373.951 243.566C373.425 243.661 372.883 243.613 372.381 243.429L366.788 241.436C366.091 241.177 365.513 240.672 365.162 240.016L334.729 182.65L341.591 184.642C342.476 184.9 343.265 185.413 343.86 186.116L383.13 232.377C383.651 232.986 383.91 233.776 383.85 234.574C383.789 235.373 383.415 236.115 382.809 236.639Z"
       fill="black"
       id="path146" />
  </g>
  <path
     d="M378.365 194.429L371.612 186.473C370.881 185.611 369.589 185.505 368.728 186.236L322.198 225.72C321.337 226.451 321.231 227.742 321.962 228.604L328.715 236.56C329.446 237.421 330.737 237.527 331.599 236.796L378.129 197.312C378.99 196.581 379.096 195.29 378.365 194.429Z"
     fill="#008380"
     id="path150" />
  <path
     d="M325.158 190.111L333.333 183.174C333.694 182.867 334.163 182.716 334.635 182.755C335.108 182.794 335.545 183.019 335.852 183.38L375.536 230.136C375.888 230.55 376.06 231.086 376.016 231.627C375.971 232.168 375.714 232.669 375.3 233.02L367.323 239.789C366.909 240.14 366.373 240.313 365.832 240.268C365.291 240.224 364.79 239.967 364.439 239.553L324.951 193.029C324.6 192.615 324.427 192.079 324.472 191.538C324.516 190.997 324.773 190.496 325.187 190.145L325.158 190.111Z"
     fill="#008380"
     id="path152" />
  <path
     d="M338.196 214.438C336.046 216.582 333.788 218.616 331.432 220.531C329.175 222.565 326.816 224.482 324.364 226.275C326.514 224.129 328.772 222.092 331.128 220.173C333.385 218.143 335.744 216.228 338.196 214.438Z"
     fill="white"
     id="path154" />
  <path
     d="M369.013 188.091C369.102 188.189 365.689 191.209 361.409 194.836C357.129 198.463 353.591 201.313 353.51 201.215C353.43 201.117 356.825 198.106 361.114 194.479C365.403 190.851 368.932 187.992 369.013 188.091Z"
     fill="white"
     id="path156" />
  <path
     d="M339.723 207.067C339.625 207.147 336.989 203.94 333.835 199.919C330.681 195.899 328.206 192.558 328.304 192.477C330.39 194.758 332.359 197.143 334.201 199.625C336.17 202.008 338.013 204.492 339.723 207.067Z"
     fill="white"
     id="path158" />
  <path
     d="M363.276 233.869C361.134 231.897 359.099 229.809 357.183 227.615C355.149 225.527 353.231 223.329 351.437 221.031C353.573 223.011 355.607 225.098 357.531 227.285C359.561 229.377 361.479 231.575 363.276 233.869Z"
     fill="white"
     id="path160" />
  <path
     d="M12.0086 230.554L10.588 225.265L48.893 232.895L82.7304 185.321L86.8585 193.004C87.1752 193.588 87.3411 194.243 87.3411 194.907C87.3411 195.572 87.1752 196.226 86.8585 196.81L57.4797 250.585C56.9567 251.54 56.2479 252.381 55.395 253.059C54.542 253.736 53.5622 254.236 52.5131 254.529C51.4641 254.822 50.367 254.902 49.2865 254.765C48.206 254.628 47.1638 254.276 46.2214 253.73L16.5745 236.549C15.4564 235.9 14.4776 235.036 13.6941 234.007C12.9106 232.978 12.3379 231.805 12.0086 230.554Z"
     fill="#FF725E"
     id="path162" />
  <g
     opacity="0.3"
     id="g166">
    <path
       d="M12.0086 230.554L10.588 225.265L48.893 232.895L82.7304 185.321L86.8585 193.004C87.1752 193.588 87.3411 194.243 87.3411 194.907C87.3411 195.572 87.1752 196.226 86.8585 196.81L57.4797 250.585C56.9567 251.54 56.2479 252.381 55.395 253.059C54.542 253.736 53.5622 254.236 52.5131 254.529C51.4641 254.822 50.367 254.902 49.2865 254.765C48.206 254.628 47.1638 254.276 46.2214 253.73L16.5745 236.549C15.4564 235.9 14.4776 235.036 13.6941 234.007C12.9106 232.978 12.3379 231.805 12.0086 230.554Z"
       fill="black"
       id="path164" />
  </g>
  <path
     d="M10.6952 222.746L16.2171 212.972C16.5968 212.297 17.2203 211.794 17.9598 211.564C18.6993 211.335 19.4985 211.398 20.1933 211.739L42.3525 222.594C43.0612 222.939 43.8761 222.996 44.6259 222.753C45.3757 222.509 46.002 221.985 46.3733 221.29L68.3538 180.05C68.5486 179.684 68.8163 179.362 69.1404 179.103C69.4645 178.844 69.8381 178.655 70.2382 178.546C70.6383 178.437 71.0565 178.411 71.4669 178.47C71.8774 178.529 72.2714 178.671 72.6248 178.888L81.5599 184.383C82.2229 184.79 82.7046 185.435 82.9058 186.186C83.1069 186.938 83.0122 187.738 82.6411 188.421L53.9056 240.963C52.9772 242.662 51.4165 243.927 49.5618 244.484C47.7071 245.041 45.7076 244.845 43.9965 243.938L11.9104 226.963C11.5472 226.773 11.2263 226.511 10.9672 226.193C10.708 225.875 10.5158 225.508 10.4023 225.114C10.2887 224.72 10.2561 224.307 10.3065 223.9C10.3568 223.493 10.4891 223.101 10.6952 222.746Z"
     fill="#FF725E"
     id="path168" />
  <path
     d="M40.8424 225.096C40.4325 224.975 40.0347 224.816 39.654 224.622L36.4999 223.193C33.8193 221.96 30.1917 220.236 26.1708 218.306L23.2312 216.894L21.8373 216.224C21.4263 215.998 20.9732 215.858 20.5059 215.813C20.0765 215.776 19.6438 215.825 19.2339 215.959C18.824 216.092 18.4453 216.307 18.1203 216.591C17.581 217.148 17.1426 217.795 16.8247 218.502L15.1002 221.513C14.9042 221.891 14.6739 222.25 14.4122 222.585C14.5506 222.182 14.7271 221.793 14.9393 221.424L16.5298 218.342L17.0659 217.323C17.2691 216.937 17.5382 216.589 17.8611 216.296C18.2252 215.975 18.6501 215.73 19.1106 215.577C19.5711 215.423 20.0578 215.364 20.5417 215.402C21.0638 215.445 21.5716 215.594 22.0339 215.84L23.4277 216.501L26.3585 217.886C30.3793 219.816 34.0159 221.594 36.6339 222.898L39.7612 224.462C40.1381 224.644 40.4996 224.856 40.8424 225.096Z"
     fill="white"
     id="path170" />
  <path
     d="M48.9645 223.318C48.8483 223.255 53.5035 214.053 59.365 202.769C65.2265 191.485 70.0872 182.373 70.1765 182.435C70.2659 182.498 65.6375 191.691 59.776 202.984C53.9145 214.277 49.0717 223.371 48.9645 223.318Z"
     fill="white"
     id="path172" />
  <path
     d="M141.263 100.408C143.305 83.9648 131.63 68.9796 115.186 66.9372C98.741 64.8947 83.7545 76.5685 81.7123 93.0112C79.6701 109.454 91.3454 124.439 107.79 126.482C124.234 128.524 139.221 116.85 141.263 100.408Z"
     fill="white"
     id="path174" />
  <path
     d="M141.488 96.6939C141.488 96.6939 141.488 96.533 141.488 96.2114C141.488 95.8898 141.488 95.3984 141.434 94.782L141.39 93.7277C141.39 93.3435 141.283 92.9236 141.22 92.468C141.157 92.0124 141.077 91.521 141.006 91.0028C140.934 90.4846 140.755 89.9396 140.63 89.3589C139.954 86.5256 138.845 83.8135 137.342 81.3182C135.382 77.9922 132.793 75.0792 129.72 72.7414L128.425 71.7675C127.969 71.4638 127.487 71.1868 127.013 70.8741C126.539 70.5614 126.066 70.2577 125.548 69.9807L123.984 69.2213L123.189 68.8461L122.349 68.5423L120.66 67.9169C120.079 67.7204 119.481 67.5953 118.873 67.4345C118.285 67.2641 117.689 67.124 117.086 67.0146C115.826 66.779 114.551 66.6298 113.271 66.5678C112.619 66.5678 111.966 66.4785 111.305 66.4874L109.312 66.5857C108.973 66.5857 108.633 66.5857 108.303 66.6483L107.293 66.8001C106.623 66.9073 105.944 66.9878 105.265 67.1307C103.9 67.4315 102.557 67.8225 101.244 68.3011C99.8918 68.7828 98.5751 69.359 97.3036 70.0254C96.6692 70.3649 96.0527 70.7669 95.4183 71.1421C95.1145 71.3387 94.7839 71.5084 94.5248 71.7318L93.6313 72.3929C92.4294 73.2863 91.2863 74.2561 90.2091 75.2965L88.6723 76.9851L88.2881 77.4139L87.9396 77.8696L87.2516 78.763L86.5547 79.6564L85.9471 80.6481L85.3395 81.6398L85.0357 82.149L84.7766 82.6761C84.437 83.3819 84.0886 84.0878 83.749 84.8025C83.4095 85.5172 83.204 86.2856 82.927 87.036C80.8538 93.216 80.8538 99.9037 82.927 106.084C83.204 106.834 83.472 107.576 83.749 108.317L84.7676 110.452L85.0267 110.98L85.3305 111.48L85.9381 112.481L86.5547 113.472L87.2427 114.366L87.9396 115.259L88.2881 115.724L88.6723 116.144L90.2091 117.832C91.2839 118.875 92.4272 119.845 93.6313 120.736L94.5248 121.406C94.8197 121.629 95.1503 121.799 95.4183 121.995C96.0527 122.362 96.6603 122.764 97.3036 123.112C98.5751 123.779 99.8918 124.355 101.244 124.836C102.557 125.315 103.9 125.706 105.265 126.007C105.944 126.15 106.623 126.221 107.293 126.337L108.303 126.489C108.642 126.534 108.973 126.489 109.312 126.552L111.305 126.65C111.966 126.65 112.627 126.597 113.271 126.57C114.551 126.508 115.826 126.359 117.086 126.123C117.689 126.015 118.285 125.874 118.873 125.703C119.472 125.533 120.07 125.408 120.66 125.221L122.349 124.595L123.189 124.292L123.984 123.907L125.548 123.157C126.066 122.916 126.531 122.576 127.013 122.263C127.496 121.951 127.969 121.692 128.425 121.37L129.729 120.396C132.797 118.056 135.382 115.143 137.342 111.819C138.843 109.323 139.952 106.611 140.63 103.779C140.783 103.237 140.909 102.689 141.006 102.135C141.077 101.608 141.157 101.116 141.22 100.661C141.283 100.205 141.354 99.7672 141.39 99.4009C141.425 99.0346 141.39 98.6683 141.434 98.3556C141.434 97.7302 141.479 97.2567 141.488 96.9261C141.497 96.5956 141.488 96.4348 141.488 96.4348C141.488 96.4348 141.488 96.6045 141.488 96.9261C141.488 97.2478 141.443 97.7302 141.399 98.3467C141.399 98.6594 141.399 99.0078 141.336 99.4009C141.274 99.794 141.22 100.196 141.148 100.652C141.077 101.107 140.997 101.545 140.916 102.108C140.818 102.66 140.687 103.206 140.523 103.743C139.827 106.549 138.709 109.233 137.208 111.703C135.255 115.078 132.656 118.035 129.56 120.405L128.273 121.37C127.817 121.665 127.335 121.942 126.87 122.263C126.405 122.585 125.923 122.871 125.405 123.112L123.859 123.854L123.073 124.229L122.242 124.533L120.562 125.14C119.99 125.328 119.391 125.453 118.775 125.614C118.187 125.782 117.59 125.919 116.988 126.025C115.739 126.253 114.476 126.4 113.208 126.462C112.565 126.462 111.922 126.543 111.26 126.534L109.286 126.427C108.955 126.427 108.624 126.427 108.294 126.364L107.293 126.212C106.632 126.105 105.953 126.025 105.292 125.891C103.938 125.591 102.607 125.2 101.307 124.72C99.9743 124.239 98.6758 123.669 97.4198 123.014C96.7854 122.665 96.1868 122.272 95.5613 121.897C95.2575 121.701 94.9269 121.54 94.6678 121.316L93.7743 120.655C92.582 119.774 91.4507 118.812 90.3878 117.778L88.9046 116.117L88.5204 115.697L88.1809 115.241L87.4928 114.348L86.8048 113.454L86.2062 112.472L85.6075 111.48L85.3037 110.989L85.0536 110.461L84.0349 108.362L83.2308 106.146C81.1815 100.042 81.1815 93.4353 83.2308 87.3309L84.0439 85.1152C84.3834 84.4183 84.714 83.7125 85.0536 83.0157L85.3127 82.4975L85.6075 81.9972L86.2062 81.0144L86.8138 80.0316L87.4928 79.1382L88.1809 78.2448L88.5204 77.7892L88.9046 77.3693L90.4236 75.6986C91.4856 74.6672 92.6139 73.7062 93.8011 72.8218L94.6946 72.1696C94.9805 71.9462 95.3111 71.7765 95.5881 71.5799C96.2136 71.2136 96.8122 70.8116 97.4466 70.4721C98.7026 69.817 100.001 69.2469 101.333 68.7657C102.634 68.286 103.965 67.895 105.318 67.5953C105.98 67.4613 106.659 67.3809 107.32 67.2736L108.321 67.1218C108.651 67.0771 108.982 67.0771 109.312 67.0503L111.287 66.952C111.948 66.952 112.592 67.0056 113.235 67.0235C114.503 67.0868 115.766 67.2331 117.015 67.4613C117.618 67.5629 118.215 67.7001 118.802 67.8722C119.391 68.0331 119.99 68.1581 120.589 68.3458L122.268 68.9533L123.091 69.257L123.886 69.6323L125.432 70.3738C125.95 70.6061 126.405 70.9456 126.888 71.2136C127.37 71.4816 127.844 71.7765 128.3 72.107L129.586 73.063C132.64 75.3768 135.221 78.255 137.19 81.5415C138.69 84.0129 139.807 86.6966 140.505 89.5019C140.667 90.039 140.798 90.5848 140.898 91.1368C140.979 91.6639 141.059 92.1464 141.131 92.602C141.202 93.0577 141.283 93.4954 141.318 93.8528C141.354 94.2102 141.363 94.5854 141.381 94.907C141.425 95.5235 141.452 95.997 141.47 96.3276C141.488 96.6581 141.488 96.6939 141.488 96.6939Z"
     fill="#263238"
     id="path176" />
  <path
     d="M152.898 115.554C152.898 116.519 152.612 117.462 152.076 118.264C151.54 119.066 150.778 119.691 149.887 120.061C148.995 120.43 148.014 120.526 147.068 120.338C146.121 120.15 145.252 119.685 144.57 119.003C143.888 118.321 143.423 117.452 143.235 116.506C143.046 115.559 143.143 114.578 143.512 113.687C143.882 112.796 144.507 112.034 145.309 111.498C146.111 110.962 147.055 110.676 148.02 110.676C148.661 110.675 149.296 110.8 149.888 111.045C150.48 111.289 151.019 111.649 151.472 112.102C151.925 112.555 152.284 113.093 152.529 113.686C152.774 114.278 152.899 114.913 152.898 115.554Z"
     fill="white"
     id="path178" />
  <path
     d="M152.898 115.554C152.898 115.554 152.898 115.447 152.898 115.241C152.901 114.941 152.868 114.641 152.8 114.348C152.548 113.244 151.915 112.263 151.013 111.578C150.412 111.088 149.706 110.745 148.949 110.578C148.053 110.406 147.127 110.477 146.268 110.783C145.319 111.127 144.497 111.75 143.909 112.57C143.271 113.436 142.927 114.483 142.927 115.558C142.927 116.634 143.271 117.681 143.909 118.547C144.497 119.367 145.319 119.99 146.268 120.334C147.125 120.649 148.053 120.72 148.949 120.539C149.884 120.354 150.746 119.903 151.432 119.241C152.118 118.579 152.599 117.733 152.818 116.805C152.886 116.512 152.919 116.212 152.916 115.911C152.916 115.706 152.916 115.599 152.916 115.599C152.916 115.599 152.916 116.036 152.693 116.778C152.454 117.654 151.973 118.444 151.304 119.057C150.635 119.671 149.806 120.082 148.913 120.244C148.08 120.391 147.223 120.314 146.429 120.021C145.554 119.705 144.794 119.132 144.249 118.377C143.657 117.572 143.337 116.598 143.337 115.599C143.337 114.599 143.657 113.626 144.249 112.82C144.797 112.068 145.555 111.496 146.429 111.176C147.223 110.884 148.08 110.807 148.913 110.953C149.807 111.116 150.637 111.529 151.306 112.144C151.975 112.759 152.456 113.551 152.693 114.428C152.88 115.116 152.862 115.554 152.898 115.554Z"
     fill="#263238"
     id="path180" />
  <path
     d="M307.779 147.505C325.431 145.26 337.921 129.131 335.675 111.481C333.429 93.8302 317.299 81.342 299.646 83.5874C281.994 85.8328 269.504 101.962 271.75 119.612C273.996 137.263 290.126 149.751 307.779 147.505Z"
     fill="white"
     id="path188" />
  <path
     d="M271.486 115.572C271.486 115.572 271.486 115.393 271.486 115.045C271.486 114.696 271.486 114.151 271.548 113.517L271.593 112.382C271.593 111.971 271.709 111.489 271.78 111.033C271.852 110.577 271.923 110.015 272.013 109.452C272.11 108.849 272.245 108.252 272.415 107.665C273.144 104.628 274.335 101.72 275.944 99.0435C278.051 95.4752 280.827 92.3475 284.12 89.8324L285.514 88.7871C286.005 88.4654 286.523 88.1706 287.033 87.8937C287.542 87.6167 288.051 87.2325 288.614 87.0002L290.285 86.1962L291.179 85.7852L292.072 85.4546L293.859 84.7846C294.476 84.5791 295.128 84.4451 295.762 84.2664C296.406 84.0817 297.059 83.9326 297.719 83.8197C299.071 83.5678 300.438 83.4066 301.812 83.3372C302.517 83.3372 303.214 83.239 303.929 83.2479L306.074 83.3551C306.431 83.3551 306.788 83.3551 307.155 83.4266L308.236 83.5874C308.951 83.7035 309.683 83.7929 310.416 83.9358C311.879 84.2665 313.321 84.6872 314.732 85.1955C316.183 85.7145 317.595 86.3355 318.958 87.0538C319.646 87.4201 320.307 87.849 320.977 88.251C321.317 88.4654 321.665 88.6441 321.987 88.8853L322.934 89.6001C324.23 90.555 325.46 91.5967 326.616 92.7181L328.269 94.5049L328.68 94.9606L329.055 95.452L329.796 96.4436L330.538 97.4353L331.199 98.5074L331.852 99.5795L332.173 100.116L332.45 100.678C332.817 101.438 333.183 102.206 333.558 102.966C333.933 103.725 334.139 104.565 334.452 105.369C336.691 112.002 336.691 119.186 334.452 125.819C334.157 126.623 333.871 127.427 333.558 128.222L332.459 130.51L332.182 131.072L331.852 131.609L331.199 132.69L330.547 133.753L329.796 134.744L329.055 135.745L328.68 136.236L328.269 136.692L326.616 138.479C325.459 139.596 324.233 140.637 322.943 141.597L321.987 142.312C321.665 142.544 321.317 142.732 320.986 142.937C320.307 143.339 319.646 143.777 318.967 144.143C317.598 144.853 316.183 145.471 314.732 145.993C313.321 146.51 311.876 146.931 310.407 147.252C309.683 147.404 308.951 147.485 308.227 147.601L307.155 147.77C306.788 147.815 306.431 147.815 306.065 147.833L303.929 147.94C303.214 147.94 302.508 147.878 301.812 147.86C300.438 147.788 299.071 147.624 297.719 147.368C297.058 147.261 296.405 147.112 295.762 146.922C295.119 146.743 294.476 146.609 293.859 146.404L292.072 145.733L291.179 145.412L290.285 145.001L288.605 144.188C288.051 143.929 287.551 143.571 287.033 143.294C286.515 143.017 286.005 142.687 285.514 142.356L284.12 141.311C280.822 138.798 278.043 135.67 275.935 132.1C274.329 129.422 273.142 126.515 272.415 123.478C272.244 122.892 272.109 122.295 272.013 121.692C271.923 121.129 271.852 120.602 271.78 120.119C271.709 119.637 271.629 119.226 271.593 118.761C271.557 118.297 271.593 117.975 271.548 117.635C271.548 116.965 271.503 116.456 271.486 116.099C271.468 115.741 271.486 115.581 271.486 115.581C271.486 115.581 271.486 115.759 271.53 116.099C271.575 116.438 271.593 116.992 271.629 117.627C271.629 117.966 271.673 118.341 271.7 118.752C271.727 119.163 271.825 119.646 271.897 120.101C271.968 120.557 272.057 121.111 272.147 121.665C272.236 122.219 272.424 122.808 272.567 123.452C273.322 126.465 274.527 129.347 276.141 132.002C278.254 135.532 281.027 138.623 284.308 141.106L285.692 142.133C286.175 142.455 286.693 142.749 287.203 143.026C287.708 143.35 288.23 143.649 288.766 143.92L290.428 144.715L291.322 145.117L292.215 145.448L294.002 146.1C294.619 146.305 295.262 146.439 295.896 146.609C296.534 146.793 297.181 146.939 297.835 147.047C299.172 147.296 300.525 147.454 301.883 147.52C302.58 147.52 303.277 147.61 303.974 147.601L306.1 147.485C306.449 147.485 306.815 147.485 307.164 147.422L308.236 147.252C308.951 147.136 309.674 147.056 310.389 146.904C311.842 146.581 313.272 146.164 314.669 145.653C316.101 145.136 317.495 144.521 318.842 143.813C319.521 143.446 320.173 143.017 320.843 142.624C321.165 142.41 321.522 142.231 321.826 141.999L322.773 141.293C324.051 140.342 325.266 139.31 326.41 138.202L328.036 136.415L328.447 135.968L328.814 135.477L329.546 134.494L330.288 133.511L330.931 132.457L331.575 131.394L331.896 130.867L332.173 130.304C332.531 129.554 332.897 128.803 333.254 128.044C333.612 127.284 333.835 126.462 334.148 125.676C335.196 122.406 335.751 118.997 335.792 115.563C335.752 112.131 335.195 108.724 334.139 105.458L333.245 103.091C332.879 102.331 332.522 101.581 332.155 100.83L331.887 100.267L331.566 99.7404L330.913 98.6772L330.27 97.623L329.537 96.6402L328.805 95.6574L328.438 95.175L328.027 94.7194L326.401 92.9325C325.257 91.8277 324.042 90.7982 322.764 89.8502L321.817 89.1444C321.505 88.9032 321.156 88.7245 320.834 88.519C320.164 88.117 319.512 87.6971 318.833 87.3219C316.16 85.934 313.319 84.8979 310.38 84.2396C309.666 84.0877 308.942 84.0073 308.227 83.8822L307.164 83.7214C306.806 83.6767 306.449 83.6767 306.091 83.6499L303.965 83.5427C303.268 83.5427 302.571 83.5963 301.883 83.6231C300.521 83.6841 299.166 83.8423 297.826 84.0966C297.171 84.197 296.523 84.3433 295.888 84.5344C295.253 84.7042 294.61 84.8382 293.993 85.0347L292.206 85.6958L291.313 86.0175L290.419 86.4195L288.757 87.2147C288.203 87.4737 287.712 87.8311 287.194 88.1081C286.675 88.385 286.175 88.7067 285.684 89.0015L284.299 90.0379C281.018 92.5213 278.246 95.612 276.132 99.1418C274.52 101.794 273.315 104.673 272.558 107.683C272.415 108.308 272.209 108.88 272.138 109.47C272.066 110.059 271.968 110.551 271.888 111.042C271.807 111.533 271.736 111.935 271.691 112.382C271.646 112.829 271.637 113.177 271.62 113.508L271.521 115.036C271.512 115.393 271.486 115.572 271.486 115.572Z"
     fill="#263238"
     id="path190" />
  <path
     d="M259.236 135.817C259.234 136.855 259.54 137.87 260.116 138.734C260.691 139.597 261.51 140.271 262.469 140.669C263.428 141.067 264.483 141.172 265.502 140.97C266.52 140.768 267.455 140.268 268.189 139.534C268.923 138.8 269.423 137.865 269.625 136.847C269.827 135.828 269.723 134.773 269.324 133.815C268.926 132.856 268.253 132.037 267.389 131.461C266.525 130.886 265.51 130.58 264.472 130.581C263.084 130.584 261.753 131.136 260.772 132.117C259.79 133.099 259.238 134.429 259.236 135.817Z"
     fill="white"
     id="path192" />
  <path
     d="M259.236 135.817C259.222 135.707 259.222 135.596 259.236 135.486C259.232 135.161 259.268 134.837 259.343 134.521C259.608 133.339 260.278 132.287 261.237 131.546C261.898 131.029 262.673 130.676 263.498 130.519C264.387 130.339 265.308 130.386 266.175 130.656C267.041 130.926 267.826 131.41 268.457 132.063C269.087 132.716 269.543 133.517 269.782 134.392C270.021 135.268 270.036 136.19 269.825 137.072C269.615 137.955 269.185 138.771 268.576 139.444C267.967 140.117 267.198 140.625 266.341 140.923C265.483 141.221 264.565 141.298 263.67 141.147C262.774 140.996 261.932 140.623 261.219 140.06C260.259 139.321 259.588 138.268 259.325 137.085C259.25 136.772 259.214 136.451 259.218 136.129C259.204 136.017 259.204 135.903 259.218 135.79C259.262 135.79 259.218 136.255 259.459 137.05C259.767 138.169 260.44 139.153 261.371 139.846C262.051 140.353 262.847 140.682 263.686 140.803C264.526 140.925 265.382 140.835 266.178 140.543C267.121 140.198 267.937 139.575 268.519 138.756C269.158 137.892 269.502 136.846 269.502 135.772C269.502 134.698 269.158 133.652 268.519 132.788C267.937 131.97 267.121 131.347 266.178 131.001C265.321 130.689 264.396 130.609 263.498 130.769C262.723 130.898 261.99 131.203 261.353 131.662C260.422 132.355 259.749 133.34 259.441 134.459C259.262 135.352 259.28 135.817 259.236 135.817Z"
     fill="#263238"
     id="path194" />
  <path
     d="M256.468 70.1238C270.758 64.501 277.776 48.3372 272.141 34.0209C266.507 19.7046 250.355 12.6571 236.065 18.2798C221.774 23.9026 214.757 40.0663 220.391 54.3826C226.026 68.6989 242.178 75.7465 256.468 70.1238Z"
     fill="white"
     id="path200" />
  <path
     d="M235.173 69.713L235.593 69.8827L236.826 70.3652L237.72 70.7226C238.059 70.8298 238.443 70.9191 238.854 71.0352L240.186 71.3926C240.695 71.519 241.211 71.6174 241.732 71.6874C244.388 72.1543 247.1 72.2116 249.773 71.8572C253.33 71.4313 256.771 70.3209 259.906 68.5873L261.219 67.8457C261.639 67.5688 262.059 67.2561 262.479 66.9523C262.899 66.6486 263.372 66.3716 263.748 66.0589L264.972 65.0047L266.098 63.9415L266.16 63.87C266.544 63.4769 266.929 63.066 267.313 62.6639C267.697 62.2619 268.019 61.7705 268.376 61.3327C268.746 60.8627 269.086 60.3704 269.395 59.8586C270.058 58.8752 270.655 57.8485 271.182 56.7853C271.441 56.2403 271.745 55.7042 271.977 55.1414L272.871 52.7649L272.969 52.5058L273.21 51.6124C273.362 50.9959 273.55 50.3884 273.684 49.763C273.93 48.4883 274.094 47.1991 274.175 45.9034C274.264 44.5767 274.264 43.2455 274.175 41.9188C274.121 41.2487 274.005 40.5787 273.916 39.9086C273.862 39.5691 273.844 39.2296 273.764 38.8901L273.523 37.8895C273.302 36.8034 273.003 35.7345 272.629 34.6911C272.424 34.1729 272.209 33.6547 272.004 33.1276L271.182 31.4837L270.914 31.0191L270.387 30.1257L269.85 29.2323L269.234 28.3389L268.608 27.4455L268.296 26.9987L267.938 26.5788L265.115 23.5948L264.909 23.3983C260.418 19.3484 254.727 16.8763 248.701 16.3582H248.442H244.305H243.76L243.215 16.4386L242.143 16.5815L241.07 16.7334L240.025 16.9835L238.988 17.2337L238.47 17.3588L236.764 17.9395L235.191 18.556C234.167 18.9867 233.173 19.4851 232.216 20.048L231.322 20.5661C231.027 20.7359 230.759 20.9503 230.482 21.1379C229.928 21.54 229.365 21.9152 228.829 22.3262C226.789 23.9882 224.972 25.9071 223.423 28.0351C223.057 28.5533 222.735 29.1072 222.396 29.6433L221.895 30.4384C221.848 30.5098 221.807 30.5844 221.77 30.6618C221.395 31.4301 221.02 32.1806 220.645 32.931C220.394 33.4939 220.207 34.0746 219.992 34.6375C219.571 35.7499 219.228 36.8903 218.965 38.0503C218.822 38.6119 218.715 39.1818 218.643 39.7567C218.563 40.3196 218.446 40.8824 218.402 41.4453C218.357 42.0081 218.33 42.571 218.304 43.1249V44.7509C218.304 45.2959 218.348 45.832 218.366 46.368C218.384 46.9041 218.5 47.4133 218.554 47.9315C218.607 48.4497 218.688 48.95 218.777 49.4503L219.126 50.9155C219.981 54.3917 221.498 57.6707 223.593 60.5733C225.164 62.7653 227.059 64.7054 229.213 66.3269C229.616 66.6489 230.036 66.9472 230.473 67.2204L231.644 67.953C232.01 68.1674 232.341 68.3907 232.653 68.5605L233.547 68.9893L234.744 69.5611L235.155 69.7487L234.762 69.5343L233.583 68.9268L232.689 68.489C232.376 68.3103 232.046 68.087 231.688 67.8636L230.527 67.131C230.098 66.8544 229.683 66.5562 229.285 66.2376C227.18 64.574 225.339 62.6009 223.825 60.3857C221.73 57.5059 220.213 54.2474 219.358 50.7904C219.242 50.308 219.126 49.8255 219.018 49.3342C218.911 48.8428 218.875 48.3335 218.804 47.8243C218.717 47.3096 218.657 46.7907 218.625 46.2697C218.625 45.7516 218.58 45.2155 218.563 44.6795C218.545 44.1434 218.563 43.5538 218.563 43.1339V43.0534L218.67 41.4006C218.715 40.8378 218.831 40.2928 218.911 39.7299C218.987 39.1616 219.095 38.5979 219.233 38.0414C219.509 36.8839 219.865 35.7466 220.296 34.6375C220.51 34.0835 220.698 33.5028 220.948 32.9578C221.315 32.2074 221.69 31.4569 222.065 30.6975C222.065 30.626 222.146 30.5545 222.19 30.4831C222.351 30.224 222.521 29.9649 222.682 29.6969C223.021 29.1697 223.343 28.6248 223.709 28.1066C224.463 27.0711 225.284 26.0862 226.166 25.1583C227.068 24.1991 228.036 23.3035 229.061 22.4781C229.589 22.0671 230.152 21.7008 230.697 21.3077C230.974 21.1201 231.233 20.8967 231.528 20.7359L232.421 20.2266C233.614 19.5512 234.85 18.9544 236.12 18.4398L238.104 17.7698L238.604 17.6L239.113 17.4749L240.141 17.2337L241.178 16.9835L242.241 16.8406L243.295 16.6887L243.831 16.6172H244.367H248.478H248.719C254.673 17.1283 260.296 19.5725 264.731 23.577L264.927 23.7646L267.724 26.7218L268.081 27.1328L268.385 27.5705L269.011 28.4639L269.618 29.3574L270.145 30.2508L270.672 31.1442L270.932 31.5998L271.146 32.0823C271.441 32.7166 271.727 33.3509 272.04 33.9853C272.524 35.2712 272.924 36.5873 273.237 37.9252L273.469 38.9169C273.55 39.2475 273.567 39.587 273.621 39.9176C273.71 40.5876 273.827 41.2487 273.88 41.9099C273.974 43.2215 273.974 44.5382 273.88 45.8498C273.805 47.1304 273.647 48.4047 273.407 49.6647C273.273 50.2901 273.094 50.8887 272.942 51.4516L272.701 52.345C272.682 52.4239 272.658 52.5015 272.629 52.5773L271.736 54.9359C271.503 55.4987 271.209 56.0259 270.958 56.5619C270.43 57.6184 269.833 58.6391 269.171 59.6174C268.86 60.0992 268.52 60.5616 268.153 61.0022C267.804 61.4489 267.474 61.8956 267.107 62.3244L265.964 63.5305L265.401 64.1202L265.347 64.1738L263.56 65.7015C263.167 66.05 262.711 66.318 262.3 66.595C261.889 66.8719 261.469 67.2025 261.049 67.4884L259.754 68.2299C256.67 70.0151 253.268 71.1834 249.737 71.6696C247.081 72.0385 244.385 71.9993 241.74 71.5534C241.224 71.4927 240.71 71.4032 240.204 71.2854L238.872 70.937C238.461 70.8298 238.077 70.7494 237.737 70.6421L236.844 70.3026L235.593 69.8559L235.173 69.713Z"
     fill="#263238"
     id="path202" />
  <path
     d="M224.067 81.8096C223.099 81.6342 222.215 81.1489 221.548 80.4269C220.881 79.7049 220.466 78.7855 220.368 77.8074C220.269 76.8293 220.491 75.8456 221.001 75.0049C221.51 74.1642 222.28 73.5121 223.192 73.147C224.105 72.7819 225.112 72.7236 226.061 72.981C227.01 73.2384 227.849 73.7975 228.452 74.5738C229.056 75.3502 229.39 76.3017 229.405 77.2846C229.419 78.2676 229.114 79.2286 228.534 80.0227C228.032 80.7093 227.347 81.2408 226.557 81.5568C225.767 81.8727 224.904 81.9603 224.067 81.8096Z"
     fill="white"
     id="path204" />
  <path
     d="M223.066 81.4969C223.066 81.4969 223.155 81.5594 223.325 81.6309C223.582 81.7445 223.852 81.8255 224.129 81.8721C225.157 82.0721 226.223 81.9045 227.14 81.3986C227.824 81.024 228.402 80.4828 228.821 79.8253C229.239 79.1678 229.485 78.4151 229.535 77.6373C229.611 76.7017 229.395 75.7656 228.919 74.957C228.416 74.0957 227.649 73.4193 226.732 73.0282C225.814 72.6371 224.795 72.5522 223.825 72.786C222.96 72.9839 222.169 73.4257 221.547 74.059C220.924 74.6924 220.497 75.4908 220.314 76.3597C220.162 77.0682 220.177 77.8024 220.359 78.5039C220.615 79.5175 221.219 80.4091 222.065 81.0233C222.289 81.1917 222.532 81.3327 222.789 81.4432C222.959 81.5237 223.057 81.5594 223.057 81.5415C223.057 81.5237 222.7 81.3628 222.164 80.9251C221.381 80.2955 220.833 79.4205 220.609 78.4414C220.448 77.778 220.448 77.0857 220.609 76.4222C220.785 75.6594 221.165 74.9585 221.708 74.3942C222.301 73.7643 223.07 73.3283 223.915 73.1434C224.813 72.945 225.75 73.0325 226.595 73.3936C227.444 73.7588 228.154 74.3846 228.624 75.1804C229.068 75.9227 229.277 76.7826 229.222 77.6462C229.176 78.3772 228.95 79.0854 228.565 79.7086C228.18 80.3318 227.648 80.8508 227.015 81.2199C226.143 81.7162 225.132 81.9109 224.138 81.7738C223.45 81.6398 223.084 81.47 223.066 81.4969Z"
     fill="#263238"
     id="path206" />
  <path
     d="M238.381 39.5152H242.589C242.589 39.0375 242.685 38.5647 242.87 38.1246C243.056 37.6845 243.328 37.286 243.671 36.9529C244.013 36.6197 244.419 36.3586 244.864 36.1849C245.309 36.0112 245.784 35.9284 246.262 35.9416C246.97 35.9141 247.67 36.1085 248.262 36.4978C248.855 36.887 249.311 37.4515 249.568 38.1126C249.789 38.6651 249.878 39.2623 249.825 39.8554C249.772 40.4485 249.58 41.0207 249.264 41.5254C248.549 42.7047 246.985 43.7768 244.144 43.3123V52.7378H248.308V47.145C250.018 46.6441 251.515 45.5956 252.571 44.1606C253.627 42.7257 254.182 40.9837 254.151 39.2025C254.151 33.0469 248.629 31.6174 246.262 31.6174C244.457 31.6532 238.3 32.082 238.381 39.5152Z"
     fill="#263238"
     id="path208" />
  <path
     d="M248.361 54.6946H244.135V58.6435H248.361V54.6946Z"
     fill="#263238"
     id="path210" />
  <path
     d="M92.568 290.369C92.568 290.369 84.9374 283.222 81.9978 281.301C79.0581 279.38 72.4818 276.78 70.0246 276.539C67.5675 276.298 56.0679 279.63 56.0679 279.63C56.0679 279.63 39.0911 278.129 36.2408 280.113C33.3905 282.096 33.6228 284.151 34.8201 285.661C36.0174 287.171 40.6012 286.688 45.6763 286.768C50.7515 286.849 52.1007 287.322 52.1007 287.322L44.7292 295.176L63.8862 300.491L75.5019 300.054L79.7014 305.343L92.568 290.369Z"
     fill="#FFBF9D"
     id="path212" />
  <path
     d="M34.4001 272.635L34.8648 289.538L35.6779 291.638L44.0233 301.814L64.3776 300.465L48.1603 294.148L42.3971 289.77L40.1633 282.543C40.1633 282.543 40.8424 271.393 34.4001 272.635Z"
     fill="#FFBF9D"
     id="path214" />
  <path
     d="M35.8119 292.031H30.8261C30.8261 292.031 24.357 281.39 18.442 285.008L19.8001 287.108C19.8001 287.108 17.1196 285.902 15.4398 288.144L31.7554 302.439H32.5059L49.8848 301.322L35.8119 292.031Z"
     fill="#FFBF9D"
     id="path216" />
  <path
     d="M38.7694 295.265C38.3032 295.309 37.8349 295.327 37.3666 295.318C36.187 295.33 35.02 295.563 33.9266 296.006L33.7658 296.087L33.6585 295.935C33.1492 295.22 32.5327 294.461 31.8715 293.666C30.558 292.031 29.3607 290.557 28.36 289.324C27.8479 288.747 27.3846 288.128 26.975 287.474C27.5855 287.959 28.1399 288.51 28.628 289.118C29.5841 290.181 30.8797 291.673 32.2557 293.38C32.899 294.184 33.5066 294.943 34.0427 295.703L33.7658 295.631C34.9173 295.173 36.1573 294.981 37.3934 295.068C37.8605 295.043 38.3281 295.11 38.7694 295.265Z"
     fill="#FF9A6C"
     id="path218" />
  <path
     d="M74.0276 285.428C72.0588 286.097 70.1415 286.91 68.2912 287.858C66.5273 288.961 64.8487 290.194 63.2697 291.548C63.597 291.024 64.004 290.554 64.4759 290.154C65.5499 289.114 66.7507 288.214 68.05 287.474C69.3526 286.733 70.7422 286.157 72.1869 285.759C72.7783 285.549 73.4001 285.437 74.0276 285.428Z"
     fill="#FF9A6C"
     id="path220" />
  <path
     d="M57.765 281.051C57.0613 282.058 56.2818 283.011 55.4332 283.901C54.7038 284.895 53.8973 285.83 53.021 286.697C53.5229 285.556 54.2181 284.51 55.0759 283.606C55.8191 282.606 56.7288 281.742 57.765 281.051Z"
     fill="#FF9A6C"
     id="path222" />
  <path
     d="M40.7709 297.623C40.6314 297.507 40.5028 297.379 40.3867 297.239L39.3323 296.069L37.6972 294.193L36.6786 293.022C36.2765 292.591 35.9062 292.131 35.5706 291.647C34.8164 290.496 34.41 289.153 34.4001 287.778C34.4001 286.34 34.3376 284.803 34.3108 283.186C34.2572 279.943 34.1946 276.378 34.1321 272.635V272.429H34.3197L34.8648 272.358C35.4652 272.287 36.0739 272.354 36.644 272.556C37.2141 272.757 37.7303 273.087 38.1529 273.519C38.9098 274.364 39.4604 275.373 39.7612 276.467C40.2853 278.453 40.4904 280.51 40.3688 282.56V282.489C41.1998 285.223 41.9325 287.671 42.5579 289.726L42.4954 289.645L46.686 292.924L47.8029 293.818C47.9368 293.914 48.0597 294.025 48.1692 294.148C48.1692 294.148 48.0173 294.077 47.7493 293.889L46.5877 293.058L42.3077 289.895V289.842C41.6644 287.796 40.896 285.375 40.0293 282.632V282.56C40.1289 280.559 39.9148 278.554 39.3949 276.619C39.1307 275.591 38.6287 274.639 37.9295 273.841C37.5534 273.458 37.0942 273.167 36.5875 272.99C36.0808 272.814 35.5403 272.756 35.0077 272.822L34.5163 272.885L34.7039 272.652C34.7575 276.396 34.8022 279.961 34.838 283.204C34.8737 286.447 34.4716 289.458 35.937 291.504C36.2291 291.968 36.5515 292.413 36.902 292.835L37.8938 294.032C38.5014 294.765 39.0285 295.408 39.4664 295.953L40.4492 297.177C40.5743 297.312 40.6824 297.462 40.7709 297.623Z"
     fill="#FF9A6C"
     id="path224" />
  <path
     d="M32.5417 302.448C32.2245 302.478 31.9072 302.392 31.6482 302.207C30.9473 301.782 30.3046 301.269 29.7361 300.679C27.8767 298.752 26.1681 296.685 24.6251 294.496C22.7845 291.941 21.2387 289.6 20.104 287.876C19.5589 286.983 19.13 286.304 18.8441 285.803C18.6704 285.56 18.5349 285.292 18.442 285.008C18.6543 285.217 18.8403 285.451 18.996 285.705L20.3809 287.689C21.5515 289.377 23.1508 291.7 24.9915 294.219C26.5251 296.398 28.1839 298.487 29.9594 300.473C30.4951 301.07 31.0943 301.606 31.7465 302.073C31.9999 302.221 32.266 302.347 32.5417 302.448Z"
     fill="#FF9A6C"
     id="path226" />
  <path
     d="M62.2332 291.539L53.2533 290.932L50.5728 283.579L50.0813 278.629C49.9764 277.458 49.4368 276.368 48.5686 275.575C47.7005 274.781 46.5667 274.341 45.3904 274.341H45.301L45.8014 286.465L47.651 293.996L54.951 298.303H63.8862L62.2332 291.539Z"
     fill="#FFBF9D"
     id="path228" />
  <path
     d="M62.2332 291.539L53.2533 290.932L50.5728 283.579L50.0813 278.629C49.9764 277.458 49.4368 276.368 48.5686 275.575C47.7005 274.781 46.5667 274.341 45.3904 274.341H45.301L45.8014 286.465L47.651 293.996L54.951 298.303"
     fill="#FFBF9D"
     id="path230" />
  <path
     d="M54.951 298.303C54.7678 298.232 54.5913 298.146 54.4238 298.044L52.9584 297.231L47.5974 294.139H47.5348V294.077C46.9898 291.915 46.3554 289.36 45.6495 286.554V286.51C45.4887 282.864 45.31 278.746 45.1223 274.386V274.154H45.3546C45.435 274.154 45.5333 274.154 45.6227 274.154C46.7027 274.192 47.7402 274.584 48.575 275.27C49.4099 275.957 49.9957 276.898 50.2422 277.951C50.3476 278.436 50.4163 278.929 50.4477 279.425L50.5817 280.854C50.68 281.748 50.7604 282.713 50.8498 283.597V283.543C51.8326 286.286 52.7172 288.77 53.5303 290.923L53.3784 290.807L59.9457 291.325L61.7328 291.495C61.9407 291.504 62.1472 291.534 62.3493 291.584C62.1414 291.606 61.9318 291.606 61.7238 291.584L59.9368 291.504L53.3695 291.137H53.164V291.039C52.3687 288.895 51.4573 286.42 50.4834 283.695V283.642C50.3941 282.748 50.2958 281.855 50.1975 280.899C50.1528 280.425 50.0992 279.952 50.0545 279.469C50.0222 278.995 49.9565 278.523 49.858 278.058C49.6332 277.104 49.1013 276.251 48.3441 275.63C47.5869 275.008 46.6464 274.653 45.6674 274.618H45.301L45.5244 274.377C45.6942 278.728 45.8639 282.855 46.0069 286.501C46.686 289.315 47.2936 291.861 47.7939 294.041L47.7135 293.934L53.021 297.15L54.4506 298.044C54.628 298.108 54.7962 298.195 54.951 298.303Z"
     fill="#FF9A6C"
     id="path232" />
  <path
     d="M254.58 148.477C246.887 119.146 239.784 85.044 196.886 88.0816C196.886 88.0816 170.456 93.1652 157.911 112.668C150.522 124.14 144.124 173.599 142.855 212.66C142.802 214.25 143.463 225.337 143.418 226.892L256.948 236.344H277.436C277.436 236.344 276.159 215.626 269.994 195.524C263.962 175.985 257.306 158.822 254.58 148.477Z"
     fill="#263238"
     id="path234" />
  <path
     d="M191.185 99.2582L193.866 96.6941L222.861 108.38C224.884 108.493 226.793 109.36 228.208 110.811C229.624 112.261 230.445 114.189 230.509 116.215L230.25 210.685C230.25 217.091 229.008 222.639 225.139 227.74L221.065 233.101C211.781 245.359 192.678 244.349 185.324 230.85C184.881 230.08 184.539 229.258 184.305 228.402C184.12 227.707 183.974 227.003 183.867 226.293C182.974 218.69 182.974 212.097 182.974 212.097C182.456 203.752 182.286 200.33 182.286 200.411C182.286 200.491 164.523 198.365 159.725 175.574C157.339 164.236 157.786 148.637 158.456 133.288C159.367 112.07 174.11 99.2314 191.185 99.2582Z"
     fill="#FFBF9D"
     id="path236" />
  <path
     d="M198.646 148.468C198.679 149.236 199.01 149.96 199.569 150.488C200.128 151.015 200.871 151.303 201.639 151.291C202.015 151.303 202.39 151.239 202.742 151.104C203.093 150.968 203.413 150.764 203.684 150.502C203.955 150.24 204.17 149.927 204.318 149.581C204.465 149.235 204.542 148.862 204.543 148.486C204.51 147.719 204.181 146.994 203.624 146.466C203.067 145.937 202.326 145.646 201.559 145.654C201.181 145.642 200.805 145.705 200.453 145.841C200.101 145.977 199.779 146.183 199.508 146.445C199.236 146.707 199.02 147.022 198.872 147.369C198.724 147.717 198.647 148.09 198.646 148.468Z"
     fill="#263238"
     id="path238" />
  <path
     d="M168.374 149.254C168.402 150.022 168.73 150.749 169.288 151.279C169.846 151.808 170.589 152.098 171.358 152.086C171.734 152.097 172.109 152.032 172.46 151.896C172.811 151.76 173.132 151.556 173.403 151.295C173.674 151.034 173.891 150.721 174.04 150.375C174.189 150.029 174.267 149.657 174.27 149.281C174.24 148.511 173.91 147.784 173.351 147.255C172.792 146.726 172.047 146.436 171.278 146.448C170.901 146.436 170.526 146.5 170.175 146.636C169.824 146.771 169.503 146.976 169.233 147.237C168.962 147.499 168.746 147.812 168.599 148.159C168.451 148.505 168.375 148.877 168.374 149.254Z"
     fill="#263238"
     id="path240" />
  <path
     d="M161.476 139.382C161.86 139.748 164.005 137.979 167.177 137.836C170.349 137.693 172.752 139.149 173.083 138.729C173.244 138.551 172.833 137.836 171.787 137.184C170.364 136.304 168.704 135.883 167.034 135.978C165.385 136.051 163.803 136.652 162.521 137.693C161.583 138.506 161.279 139.221 161.476 139.382Z"
     fill="#263238"
     id="path242" />
  <path
     d="M192.928 138.274C193.348 138.595 195.313 136.621 198.45 136.147C201.586 135.674 204.132 136.889 204.409 136.451C204.552 136.255 204.079 135.62 202.962 135.049C201.459 134.32 199.768 134.071 198.119 134.334C196.484 134.581 194.969 135.341 193.794 136.505C192.955 137.38 192.731 138.158 192.928 138.274Z"
     fill="#263238"
     id="path244" />
  <path
     d="M182.58 162.789C182.58 162.611 180.597 162.369 177.38 162.119C176.567 162.074 175.79 161.958 175.593 161.413C175.48 160.579 175.626 159.731 176.013 158.983C176.674 156.982 177.371 154.891 178.095 152.729C180.981 143.795 183.027 136.451 182.669 136.335C182.312 136.219 179.676 143.384 176.791 152.327C176.094 154.534 175.433 156.634 174.807 158.644C174.548 159.582 174.075 160.654 174.548 161.842C174.678 162.122 174.871 162.368 175.111 162.561C175.351 162.755 175.632 162.891 175.933 162.959C176.388 163.057 176.853 163.099 177.318 163.084C180.579 163.057 182.571 162.977 182.58 162.789Z"
     fill="#263238"
     id="path246" />
  <path
     d="M182.268 200.429C193.103 200.055 203.621 196.677 212.648 190.673C212.648 190.673 205.714 206.969 182.608 205.977L182.268 200.429Z"
     fill="#FF9A6C"
     id="path248" />
  <path
     d="M192.49 169.239C192.026 168.707 191.459 168.274 190.824 167.967C190.188 167.66 189.496 167.485 188.791 167.453C186.798 167.336 185.395 167.587 184.323 169.159C184.114 169.547 183.987 169.974 183.948 170.414C183.91 170.853 183.961 171.296 184.1 171.714C184.332 172.081 184.162 172.089 184.52 172.349C185.816 173.257 187.28 173.897 188.826 174.234C190.363 174.582 192.133 174.234 192.928 172.974C193.242 172.38 193.368 171.705 193.29 171.039C193.211 170.372 192.933 169.744 192.49 169.239Z"
     fill="#FF9A6C"
     id="path250" />
  <path
     d="M192.168 123.738C192.579 124.542 195.304 123.738 198.664 123.648C202.024 123.559 204.82 124.184 205.142 123.354C205.285 122.96 204.695 122.228 203.498 121.567C201.953 120.763 200.226 120.372 198.485 120.432C196.765 120.467 195.085 120.957 193.616 121.853C192.49 122.585 191.99 123.345 192.168 123.738Z"
     fill="#263238"
     id="path252" />
  <path
     d="M161.932 133.646C162.521 134.334 164.675 133.476 167.293 133.315C169.911 133.155 172.162 133.548 172.654 132.77C172.859 132.395 172.475 131.689 171.465 131.055C170.125 130.288 168.58 129.954 167.043 130.099C165.5 130.199 164.029 130.78 162.834 131.761C161.932 132.547 161.664 133.306 161.932 133.646Z"
     fill="#263238"
     id="path254" />
  <path
     d="M229.928 156.535C229.928 156.535 217.723 159.483 200.442 122.183C194.545 109.488 183.099 96.6941 183.099 96.6941L193.821 95.1484C193.821 95.1484 225.854 104.172 226.39 104.574C226.926 104.976 234.476 121.138 234.476 121.138L229.928 156.535Z"
     fill="#263238"
     id="path256" />
  <path
     d="M225.925 155.043C225.845 153.328 227.623 149.191 229.294 148.843C233.761 147.949 241.928 147.869 242.58 159.331C243.474 174.993 227.56 172.652 227.507 172.206C227.453 171.759 226.211 160.949 225.925 155.043Z"
     fill="#FFBF9D"
     id="path258" />
  <path
     d="M231.956 165.97C232.019 165.916 232.233 166.148 232.707 166.336C233.374 166.575 234.107 166.546 234.753 166.256C236.37 165.559 237.612 162.852 237.531 160.002C237.491 158.656 237.156 157.335 236.549 156.133C236.374 155.653 236.085 155.222 235.707 154.878C235.329 154.534 234.872 154.287 234.378 154.159C234.059 154.093 233.727 154.141 233.44 154.294C233.152 154.448 232.928 154.697 232.805 154.998C232.618 155.445 232.743 155.758 232.653 155.785C232.564 155.811 232.305 155.543 232.394 154.891C232.459 154.497 232.658 154.137 232.957 153.873C233.16 153.698 233.396 153.565 233.65 153.483C233.905 153.4 234.173 153.368 234.44 153.39C235.091 153.479 235.708 153.734 236.232 154.129C236.756 154.525 237.17 155.049 237.433 155.651C238.173 156.972 238.581 158.452 238.621 159.966C238.702 163.129 237.254 166.175 235.048 166.952C234.634 167.098 234.194 167.15 233.758 167.104C233.322 167.057 232.902 166.914 232.528 166.684C232.001 166.381 231.867 166.032 231.956 165.97Z"
     fill="#FF9A6C"
     id="path260" />
  <path
     d="M195.492 169.538C195.316 169.081 192.386 169.945 188.702 170.16C185.017 170.374 181.973 169.947 181.865 170.413C181.758 170.878 184.86 172.107 188.845 171.834C192.829 171.561 195.674 169.904 195.492 169.538Z"
     fill="#263238"
     id="path262" />
  <path
     d="M316.921 291.245C316.921 291.245 330.038 280.014 333.844 279.711C337.651 279.407 347.64 281.274 347.64 281.274C347.64 281.274 353.957 281.328 357.093 280.935C360.368 280.414 363.714 280.579 366.922 281.417C367.869 281.703 369.058 284.053 366.27 285.661C365.09 286.34 353.618 287.117 353.618 287.117L382.317 295.31L378.591 298.383C378.088 298.801 377.458 299.037 376.804 299.053L335.515 300.518L333.621 305.137L316.921 291.245Z"
     fill="#FFBF9D"
     id="path264" />
  <path
     d="M348.248 291.253H361.65C361.65 291.253 366.35 284.999 368.048 282.418C369.54 280.139 371.327 279.469 372.891 280.005C373.299 280.154 373.639 280.446 373.847 280.827C373.996 281.101 374.074 281.409 374.074 281.721C374.074 282.033 373.996 282.34 373.847 282.614L367.95 293.612L371.041 292.576C371.041 292.576 377.224 286.518 378.431 285.116C379.637 283.713 384.033 277.816 387.929 282.114L382.568 288.118L387.929 284.312C387.929 284.312 392.235 280.613 394.532 285.017L378.448 298.562"
     fill="#FFBF9D"
     id="path266" />
  <path
     d="M334.291 285.688C334.462 285.604 334.642 285.541 334.827 285.5C335.347 285.325 335.882 285.202 336.426 285.134C338.452 284.863 340.513 285.077 342.44 285.759C343.786 286.224 345.082 286.822 346.309 287.546C346.97 287.939 347.64 288.368 348.319 288.841L349.338 289.565C349.659 289.797 350.061 290.101 350.321 290.244C353.716 290.503 357.603 290.735 361.668 291.021L361.472 291.102C362.731 289.61 363.965 287.984 365.162 286.295C365.635 285.634 366.055 284.964 366.511 284.303C366.967 283.642 367.351 282.954 367.833 282.328C368.294 281.679 368.821 281.08 369.406 280.541C369.704 280.282 370.031 280.057 370.38 279.871C370.753 279.656 371.183 279.56 371.613 279.594H371.533C371.902 279.532 372.28 279.545 372.643 279.633C373.007 279.72 373.35 279.881 373.65 280.104C373.917 280.358 374.12 280.672 374.243 281.02C374.366 281.367 374.404 281.739 374.356 282.105V282.15C371.801 286.724 369.576 290.709 367.86 293.764C367.673 294.329 367.364 294.846 366.954 295.278C366.545 295.71 366.046 296.047 365.492 296.266C364.693 296.598 363.839 296.78 362.973 296.802C362.44 296.831 361.906 296.831 361.373 296.802C361.187 296.807 361.001 296.789 360.819 296.748H361.373C361.731 296.748 362.267 296.748 362.964 296.685C363.804 296.635 364.63 296.439 365.403 296.105C365.913 295.888 366.371 295.565 366.745 295.156C367.12 294.748 367.403 294.264 367.574 293.737L373.936 282.007V282.087C373.974 281.792 373.943 281.493 373.845 281.212C373.747 280.932 373.586 280.678 373.373 280.47C372.852 280.109 372.21 279.968 371.586 280.077H371.515C371.2 280.072 370.891 280.156 370.621 280.318C370.296 280.481 369.996 280.689 369.728 280.935C369.163 281.436 368.656 281.999 368.218 282.614C367.324 283.865 366.52 285.294 365.537 286.581C364.331 288.287 363.089 289.904 361.811 291.414L361.74 291.504H361.624C357.531 291.2 353.725 290.968 350.222 290.655C349.822 290.444 349.445 290.192 349.096 289.904L348.087 289.181C347.426 288.707 346.764 288.287 346.121 287.885C344.921 287.165 343.652 286.566 342.333 286.098C340.45 285.401 338.433 285.144 336.435 285.348C335.899 285.403 335.367 285.499 334.845 285.634C334.662 285.665 334.477 285.682 334.291 285.688Z"
     fill="#FF9A6C"
     id="path268" />
  <path
     d="M387.955 282.114C387.819 282.381 387.644 282.628 387.437 282.846C387.071 283.302 386.544 283.954 385.874 284.74C384.551 286.331 382.693 288.502 380.611 290.878C378.529 293.255 376.742 295.506 375.196 296.918C374.603 297.49 373.957 298.004 373.266 298.454C373.021 298.635 372.741 298.763 372.444 298.83C372.673 298.638 372.915 298.462 373.168 298.302C373.801 297.803 374.398 297.26 374.955 296.676C376.411 295.229 378.109 292.933 380.235 290.583C382.362 288.234 384.221 286.063 385.597 284.526L387.259 282.739C387.462 282.501 387.697 282.291 387.955 282.114Z"
     fill="#FF9A6C"
     id="path270" />
  <path
     d="M380.602 282.739C380.128 283.431 379.583 284.072 378.976 284.651C377.93 285.794 376.456 287.331 374.812 289.047C373.463 290.44 372.203 291.727 371.238 292.701C370.173 293.131 369.06 293.431 367.923 293.594C368.209 293.451 368.508 293.334 368.816 293.246L371.157 292.352L371.086 292.397C372.051 291.36 373.284 290.065 374.66 288.68C376.304 286.983 377.814 285.464 378.922 284.383C379.435 283.789 379.997 283.239 380.602 282.739Z"
     fill="#FF9A6C"
     id="path272" />
  <path
     d="M272.451 224.578C272.451 224.578 291.715 229.545 293.6 255.722C294.681 270.642 286.738 318.556 286.738 318.556L315.188 289.342L340.545 306.978C340.545 306.978 306.029 349.12 298.095 355.49C290.16 361.86 277.436 372.027 273.326 371.196C269.216 370.366 269.198 351.354 269.198 351.354V246.377L272.451 224.578Z"
     fill="#A43D7F"
     id="path274" />
  <path
     d="M133.956 227.785C133.956 227.785 116.818 233.422 117.497 266.925C118.176 300.429 117.649 311.677 117.649 311.677L91.9605 284.49L70.6412 308.023C70.6412 308.023 94.516 343.491 111.216 360.734C126.96 376.968 140.952 362.869 145.5 351.452C149.181 342.205 152.148 307.04 152.148 307.04L133.956 227.785Z"
     fill="#A43D7F"
     id="path276" />
  <g
     opacity="0.3"
     id="g280">
    <path
       d="M273.943 284.883C275.498 275.056 275.909 264.415 271.432 255.401C260.451 282.543 260.942 313.714 264.874 342.473L273.576 367.355C279.063 350.684 273.853 332.922 273.97 315.536C274.041 305.629 272.397 294.684 273.943 284.883Z"
       fill="black"
       id="path278" />
  </g>
  <path
     d="M130.391 249.102C130.391 249.102 141.845 326.15 144.061 332.895C146.277 339.641 146.277 359.528 146.277 359.528C146.277 359.528 134.259 381.917 133.518 397.472L278.33 397.775L268.921 333.834C268.622 329.797 268.55 325.746 268.707 321.701C269.314 310.435 270.181 286.286 273.416 271.437C277.168 254.176 272.111 224.64 272.111 224.64L228.856 213.982C218.616 228.696 193.115 228.893 183.001 213.982L134.179 227.785L130.391 249.102Z"
     fill="#A43D7F"
     id="path282" />
  <path
     d="M271.763 330.778C271.867 330.527 272.012 330.295 272.192 330.09C272.495 329.67 272.951 329.063 273.523 328.304C275.009 326.367 276.672 324.572 278.491 322.943C280.341 321.352 282.404 320.026 284.62 319.003C285.514 318.628 286.175 318.342 286.666 318.181C286.918 318.073 287.182 317.998 287.453 317.958C287.551 318.145 283.066 319.584 278.795 323.318C277.005 324.93 275.327 326.661 273.773 328.5C273.158 329.306 272.486 330.068 271.763 330.778Z"
     fill="#263238"
     id="path284" />
  <path
     d="M137.664 329.143C137.574 329.143 137.244 327.58 136.145 325.23C134.728 322.161 132.659 319.439 130.082 317.252C127.505 315.066 124.482 313.468 121.223 312.57C118.721 311.873 117.095 311.802 117.113 311.677C117.49 311.63 117.871 311.63 118.248 311.677C119.279 311.766 120.301 311.939 121.304 312.195C124.65 313.019 127.76 314.606 130.391 316.832C133.008 319.069 135.08 321.874 136.449 325.033C136.861 325.982 137.198 326.962 137.458 327.964C137.579 328.346 137.648 328.743 137.664 329.143Z"
     fill="#263238"
     id="path286" />
  <path
     d="M138.593 287.394C138.354 287.313 138.131 287.192 137.932 287.037C137.53 286.786 136.958 286.393 136.27 285.875C134.49 284.526 132.826 283.032 131.293 281.408C129.77 279.785 128.341 278.076 127.013 276.289C126.42 275.577 125.899 274.808 125.458 273.993C126.103 274.646 126.7 275.345 127.245 276.083C128.335 277.397 129.837 279.201 131.615 281.086C133.136 282.692 134.754 284.205 136.458 285.616C137.202 286.169 137.915 286.762 138.593 287.394Z"
     fill="#263238"
     id="path288" />
  <path
     d="M239.676 329.099C239.676 329.099 239.676 329.161 239.56 329.277L239.185 329.769C238.828 330.189 238.354 330.85 237.657 331.618C235.723 333.828 233.632 335.897 231.403 337.809C228.08 340.66 224.54 343.247 220.814 345.546C216.266 348.342 211.568 350.886 206.742 353.167C201.613 355.606 196.663 357.777 192.177 359.796C187.692 361.816 183.68 363.665 180.365 365.336C177.05 367.006 174.405 368.436 172.6 369.472C171.707 369.972 171.01 370.366 170.536 370.669L169.991 370.973C169.866 371.036 169.804 371.071 169.795 371.062C169.844 371.012 169.901 370.969 169.964 370.937L170.483 370.589C170.947 370.294 171.617 369.847 172.511 369.311C174.298 368.23 176.907 366.738 180.213 365.041C183.519 363.343 187.531 361.467 192.007 359.403C196.484 357.34 201.425 355.186 206.536 352.747C211.35 350.471 216.041 347.945 220.591 345.18C224.302 342.92 227.839 340.384 231.17 337.595C233.419 335.715 235.541 333.689 237.523 331.529C238.238 330.787 238.738 330.144 239.105 329.742L239.525 329.286L239.676 329.099Z"
     fill="#263238"
     id="path290" />
  <path
     d="M133.849 396.265V396.078C133.849 395.926 133.849 395.747 133.849 395.515C133.849 394.997 133.929 394.273 133.983 393.335C134.327 390.618 134.873 387.93 135.618 385.294C138.363 376.058 142.102 367.146 146.769 358.715V358.831C146.188 350.451 145.321 341.088 144.321 331.243C142.408 312.642 140.407 295.845 138.959 283.677C138.227 277.62 137.628 272.706 137.172 269.284C136.976 267.605 136.824 266.282 136.708 265.362L136.601 264.344C136.589 264.228 136.589 264.111 136.601 263.995C136.637 264.105 136.661 264.219 136.672 264.335C136.708 264.585 136.761 264.924 136.833 265.353C136.958 266.247 137.146 267.578 137.378 269.257C137.834 272.679 138.477 277.584 139.281 283.641C140.827 295.792 142.855 312.588 144.794 331.189C145.795 341.017 146.653 350.415 147.198 358.804V358.867V358.921C142.528 367.318 138.751 376.181 135.93 385.366C135.15 387.987 134.553 390.658 134.143 393.362C134.063 394.255 133.991 395.015 133.947 395.524C133.947 395.756 133.947 395.944 133.884 396.087C133.881 396.148 133.869 396.208 133.849 396.265Z"
     fill="#263238"
     id="path292" />
  <path
     d="M275.194 250.898C275.207 251.025 275.207 251.154 275.194 251.282C275.194 251.559 275.194 251.925 275.194 252.408C275.194 253.39 275.194 254.847 275.113 256.714C275.015 260.457 274.631 265.862 273.961 272.527C273.291 279.192 272.343 287.099 271.361 295.89C270.378 304.681 269.413 314.357 269.109 324.56C268.897 334.145 269.558 343.729 271.084 353.194C272.37 361.949 273.889 369.767 275.06 376.36C276.23 382.954 277.142 388.287 277.642 391.995C277.91 393.853 278.062 395.301 278.169 396.274C278.169 396.748 278.25 397.168 278.276 397.391C278.288 397.519 278.288 397.648 278.276 397.775C278.239 397.653 278.215 397.527 278.205 397.4C278.205 397.123 278.116 396.757 278.044 396.292C277.91 395.31 277.731 393.871 277.428 392.022C276.882 388.323 275.953 382.989 274.747 376.414C273.541 369.838 271.977 362.021 270.664 353.256C269.111 343.767 268.435 334.155 268.644 324.542C268.957 314.321 269.949 304.637 270.941 295.845C271.932 287.054 272.951 279.148 273.621 272.492C274.291 265.836 274.756 260.448 274.917 256.705C275.033 254.838 275.042 253.39 275.078 252.408C275.078 251.925 275.078 251.559 275.078 251.282C275.104 251.15 275.143 251.022 275.194 250.898Z"
     fill="#263238"
     id="path294" />
  <g
     opacity="0.3"
     id="g298">
    <path
       d="M137.02 267.408C134.551 292.082 137.412 316.999 145.411 340.472L137.02 267.408Z"
       fill="black"
       id="path296" />
  </g>
  <g
     opacity="0.3"
     id="g302">
    <path
       d="M226.595 352.774C215.623 362.852 204.615 371.464 191.114 376.262C201.291 377.155 211.558 373.233 219.42 366.72C227.283 360.207 232.886 353.319 236.487 343.795L226.595 352.774Z"
       fill="black"
       id="path300" />
  </g>
  <path
     d="M214.095 363.87C214.006 363.781 220.832 357.518 229.339 349.888C237.845 342.258 244.814 336.156 244.895 336.255C244.975 336.353 238.157 342.607 229.651 350.237C221.145 357.866 214.184 363.968 214.095 363.87Z"
     fill="#263238"
     id="path304" />
  <path
     d="M238.363 174.797C238.363 175.905 238.034 176.988 237.418 177.91C236.802 178.831 235.927 179.549 234.903 179.973C233.878 180.396 232.751 180.507 231.664 180.29C230.577 180.073 229.579 179.539 228.796 178.754C228.013 177.97 227.48 176.971 227.265 175.884C227.05 174.797 227.162 173.67 227.587 172.647C228.013 171.623 228.732 170.749 229.655 170.135C230.577 169.52 231.661 169.193 232.77 169.195C233.505 169.195 234.233 169.34 234.912 169.621C235.591 169.903 236.208 170.316 236.728 170.836C237.247 171.356 237.659 171.974 237.94 172.654C238.22 173.333 238.364 174.061 238.363 174.797Z"
     fill="#455A64"
     id="path306" />
  <path
     d="M271.7 248.36C270.05 234.661 268.4 220.962 266.75 207.263L231.322 196.542C230.634 220.986 226.354 248.432 220.207 272.098C233.313 276.34 247.163 277.783 260.862 276.333C261.457 269.722 262.053 263.111 262.649 256.499C263.53 261.485 264.424 266.467 265.329 271.446C269.046 269.365 271.235 265.192 271.977 261.02C272.719 256.848 272.209 252.631 271.7 248.36Z"
     fill="#263238"
     id="path308" />
  <path
     d="M243.974 276.521C243.974 276.521 243.974 276.351 244.082 276.012C244.189 275.672 244.278 275.118 244.43 274.502C244.743 273.162 245.198 271.214 245.788 268.722C246.95 263.692 248.665 256.428 250.336 247.36C252.375 236.743 253.665 225.995 254.196 215.197C254.877 201.99 253.673 188.754 250.622 175.887C247.602 162.991 242.013 150.837 234.19 140.15C233.297 138.944 232.403 137.72 231.403 136.576C230.402 135.433 229.517 134.316 228.508 133.289L227.033 131.725L225.532 130.233C224.549 129.232 223.531 128.312 222.548 127.383C218.572 123.702 214.685 120.468 211.209 117.43C207.733 114.393 204.633 111.596 202.059 108.979C201.407 108.327 200.817 107.665 200.272 107.058C199.727 106.45 199.129 105.834 198.628 105.271C198.128 104.708 197.619 104.11 197.154 103.565L195.894 101.956C195.072 100.956 194.456 99.9909 193.875 99.1779C193.294 98.3649 192.865 97.6502 192.517 97.0605L191.73 95.7383C191.552 95.4345 191.471 95.2737 191.471 95.2737C191.471 95.2737 191.579 95.4166 191.775 95.7115L192.597 97.0159C192.955 97.5876 193.401 98.3024 193.991 99.0975C194.581 99.8926 195.206 100.884 196.037 101.849L197.306 103.44L198.789 105.128C199.299 105.727 199.852 106.325 200.451 106.915C201.05 107.505 201.631 108.184 202.292 108.818C204.865 111.418 207.984 114.178 211.468 117.207C214.953 120.236 218.849 123.461 222.852 127.124C223.834 128.017 224.871 128.982 225.854 129.974L227.364 131.466L228.847 133.038C229.866 134.066 230.786 135.218 231.76 136.335C232.734 137.452 233.645 138.667 234.583 139.909C242.44 150.639 248.047 162.846 251.069 175.797C254.138 188.71 255.342 201.996 254.643 215.251C254.089 226.052 252.764 236.801 250.676 247.414C248.96 256.491 247.2 263.745 245.985 268.766C245.368 271.268 244.877 273.233 244.537 274.529C244.367 275.172 244.233 275.663 244.144 276.021C244.055 276.378 243.974 276.521 243.974 276.521Z"
     fill="#455A64"
     id="path310" />
  <g
     aria-label="SIM"
     id="text2227"
     style="font-size:18.6667px;line-height:1.25;fill:#263238">
    <path
       d="m 99.531607,103.54156 q -1.64267,0 -3.173339,-0.37334 -1.530669,-0.37333 -2.520005,-0.97067 l 1.41867,-3.210668 q 0.933335,0.541334 2.072003,0.877335 1.157336,0.317333 2.240004,0.317333 0.63467,0 0.98934,-0.0747 0.37333,-0.0933 0.54133,-0.242663 0.168,-0.168001 0.168,-0.392001 0,-0.354667 -0.392,-0.560001 -0.392,-0.205334 -1.045336,-0.336001 -0.634668,-0.149333 -1.400002,-0.298667 -0.765335,-0.168 -1.549336,-0.429334 -0.765335,-0.261334 -1.41867,-0.690668 -0.634667,-0.429334 -1.026668,-1.120002 -0.392001,-0.709335 -0.392001,-1.75467 0,-1.213335 0.672001,-2.20267 0.690668,-1.008002 2.034671,-1.605337 1.362669,-0.597334 3.378671,-0.597334 1.32534,0 2.61334,0.28 1.288,0.280001 2.31467,0.858669 l -1.32534,3.192005 q -0.97066,-0.485334 -1.88533,-0.728001 -0.896,-0.242667 -1.75467,-0.242667 -0.63467,0 -1.008004,0.112 -0.373334,0.112 -0.541334,0.298667 -0.149334,0.186667 -0.149334,0.410668 0,0.336 0.392001,0.541334 0.392001,0.186667 1.026669,0.317334 0.653332,0.130667 1.418672,0.280001 0.784,0.149333 1.54933,0.410667 0.76534,0.261334 1.40001,0.690668 0.65333,0.429334 1.04533,1.120002 0.392,0.690668 0.392,1.717336 0,1.194665 -0.69067,2.202675 -0.672,0.98933 -2.016,1.60533 -1.344,0.59734 -3.378673,0.59734 z"
       style="font-weight:900;font-family:Montserrat;-inkscape-font-specification:'Montserrat Heavy'"
       id="path16210" />
    <path
       d="M 106.92361,103.24289 V 90.176199 h 4.40534 v 13.066691 z"
       style="font-weight:900;font-family:Montserrat;-inkscape-font-specification:'Montserrat Heavy'"
       id="path16212" />
    <path
       d="M 113.45697,103.24289 V 90.176199 h 3.62134 l 5.22667,8.530682 h -1.904 l 5.07734,-8.530682 h 3.62134 l 0.0373,13.066691 h -4.01334 l -0.0373,-7.01868 h 0.63467 l -3.47201,5.84268 h -1.94134 l -3.62134,-5.84268 h 0.78401 v 7.01868 z"
       style="font-weight:900;font-family:Montserrat;-inkscape-font-specification:'Montserrat Heavy'"
       id="path16214" />
  </g>
  <g
     aria-label="NO"
     id="text2227-6"
     style="font-size:16px;line-height:1.25;fill:#263238">
    <path
       d="m 284.81651,121.14626 v -11.2 h 3.104 l 5.696,6.816 h -1.44 v -6.816 h 3.68 v 11.2 h -3.104 l -5.696,-6.816 h 1.44 v 6.816 z"
       style="font-weight:900;font-family:Montserrat;-inkscape-font-specification:'Montserrat Heavy'"
       id="path16254" />
    <path
       d="m 296.46452,121.14626 4.896,-11.2 h 3.712 l 4.896,11.2 h -3.904 l -3.616,-9.408 h 1.472 l -3.616,9.408 z m 2.912,-1.952 0.96,-2.72 h 5.152 l 0.96,2.72 z m 5.136,-10 q -0.448,0 -0.8,-0.144 -0.336,-0.144 -0.624,-0.32 -0.272,-0.192 -0.496,-0.336 -0.224,-0.144 -0.448,-0.144 -0.304,0 -0.496,0.208 -0.192,0.208 -0.224,0.576 h -1.712 q 0.032,-1.264 0.608,-2.016 0.576,-0.752 1.6,-0.752 0.448,0 0.784,0.144 0.352,0.144 0.624,0.336 0.288,0.176 0.512,0.32 0.24,0.144 0.448,0.144 0.32,0 0.512,-0.192 0.192,-0.208 0.208,-0.544 h 1.712 q -0.016,1.216 -0.608,1.968 -0.576,0.752 -1.6,0.752 z"
       style="font-weight:900;font-family:Montserrat;-inkscape-font-specification:'Montserrat Heavy'"
       id="path16256" />
    <path
       d="m 316.28852,121.40226 q -1.36,0 -2.528,-0.432 -1.152,-0.432 -2,-1.216 -0.848,-0.8 -1.328,-1.872 -0.464,-1.072 -0.464,-2.336 0,-1.28 0.464,-2.336 0.48,-1.072 1.328,-1.856 0.848,-0.8 2,-1.232 1.168,-0.432 2.528,-0.432 1.376,0 2.528,0.432 1.152,0.432 2,1.232 0.848,0.784 1.312,1.856 0.48,1.056 0.48,2.336 0,1.264 -0.48,2.336 -0.464,1.072 -1.312,1.872 -0.848,0.784 -2,1.216 -1.152,0.432 -2.528,0.432 z m 0,-3.056 q 0.528,0 0.976,-0.192 0.464,-0.192 0.8,-0.544 0.352,-0.368 0.544,-0.88 0.192,-0.528 0.192,-1.184 0,-0.656 -0.192,-1.168 -0.192,-0.528 -0.544,-0.88 -0.336,-0.368 -0.8,-0.56 -0.448,-0.192 -0.976,-0.192 -0.528,0 -0.992,0.192 -0.448,0.192 -0.8,0.56 -0.336,0.352 -0.528,0.88 -0.192,0.512 -0.192,1.168 0,0.656 0.192,1.184 0.192,0.512 0.528,0.88 0.352,0.352 0.8,0.544 0.464,0.192 0.992,0.192 z"
       style="font-weight:900;font-family:Montserrat;-inkscape-font-specification:'Montserrat Heavy'"
       id="path16258" />
  </g>
</svg>
