<svg width="30" height="36" viewBox="0 0 30 36" fill="none" xmlns="http://www.w3.org/2000/svg">
<path d="M16.9667 32.4029C16.9464 32.1121 16.899 31.8214 16.8382 31.5441C16.446 29.6914 15.3303 27.8927 13.579 27.0205C12.6391 26.5539 11.4693 26.4727 10.5632 27.0002C10.1237 27.2571 9.77206 27.6425 9.37987 27.9671C8.98768 28.2984 8.52115 28.5824 8.01401 28.5892C7.6962 28.5892 7.39193 28.4878 7.09441 28.3863C6.20185 28.0753 4.98469 27.8454 4.06508 27.6696C3.18604 27.4938 2.27319 27.3924 1.39415 27.6223C1.0831 27.7034 0.76533 27.8454 0.582761 28.1091C0.447524 28.3052 0.393418 28.5554 0.359609 28.7921C0.29199 29.306 0.305516 29.8807 0.657131 30.2594C0.887033 30.5096 1.22513 30.6245 1.5497 30.7192C2.90883 31.1384 4.38966 31.6253 5.80964 31.7605C7.12144 31.8822 8.06133 32.0513 9.22436 32.7748C10.881 33.8026 12.2401 34.7222 14.289 34.7763C15.141 34.8033 16.0944 34.6343 16.6015 33.9513C16.9261 33.5118 17.0005 32.9573 16.9667 32.4029" fill="#F69834"/>
<path d="M9.76504 17.0805C9.76504 17.0264 9.74476 16.9723 9.72447 16.9182C9.29172 15.9648 8.39916 15.1466 7.91231 14.1796C7.4525 13.2736 7.11443 12.3066 6.66815 11.3938C5.97168 9.96702 4.45024 8.16161 3.51035 6.89038C3.33454 6.65372 3.15873 6.41705 2.9153 6.25477C2.11741 5.72735 0.947624 6.37648 0.650104 7.28257C0.352583 8.19542 0.6839 9.18941 1.1437 10.0346C1.89427 11.414 3.55771 13.0977 4.72074 14.1458C5.28197 14.653 5.87701 15.1398 6.27595 15.7822C6.76281 16.553 7.01974 17.5741 7.65535 18.2435C8.43973 19.0752 8.35183 17.662 9.18353 17.5335C9.31877 17.5132 9.46756 17.5335 9.58927 17.4727C9.72451 17.3983 9.77857 17.2428 9.76504 17.0872" fill="#47C5F2"/>
<path d="M14.1064 15.1059C14.1537 15.16 14.2078 15.2141 14.2619 15.2682C14.7082 15.6671 15.6886 15.3223 16.0132 14.8692C16.2702 14.5041 16.2296 14.0172 16.1823 13.571C15.9929 11.894 15.8036 10.2103 15.6142 8.53339C15.3167 5.9098 15.5466 3.18478 14.0387 0.858712C13.4504 -0.0541354 12.1184 0.013483 11.3746 0.743761C10.6443 1.46052 10.7457 2.64384 10.9215 3.65135C11.4895 6.93084 12.3077 10.1089 13.2611 13.2937C13.4437 13.8955 13.6736 14.6123 14.1064 15.1059" fill="#F08296"/>
<path d="M19.9421 14.788C20.2396 15.1464 20.7197 15.4371 21.1186 15.4439C21.8422 15.4574 22.1397 14.6595 22.2682 14.078C22.8023 11.6505 23.2486 9.19596 23.6002 6.73465C23.7625 5.5919 23.9045 4.43563 23.8166 3.28612C23.7828 2.8466 23.7152 2.38679 23.4582 2.02165C23.1404 1.56185 22.6062 1.35899 22.072 1.27785C21.6055 1.21023 21.1119 1.1629 20.6791 1.38604C19.9488 1.7647 20.1381 3.27259 20.199 3.91497C20.2937 4.94953 20.2193 5.97056 20.2666 7.00512C20.3613 8.89168 20.199 10.7985 19.7933 12.6445C19.6716 13.2057 19.5228 13.7872 19.6784 14.3417C19.7189 14.4972 19.8136 14.6528 19.9353 14.8015" fill="#D3DD31"/>
<path d="M25.3042 16.2821V16.3023C25.2298 16.4849 25.1622 16.6945 25.2569 16.8636C25.3313 16.9921 25.48 17.0529 25.622 17.1002C25.9871 17.2287 26.4064 17.3504 26.758 17.1814C27.3868 16.8771 27.6641 15.6329 27.8534 15.0311C28.1577 14.0642 28.4349 13.0837 28.6851 12.1032C29.0165 10.7847 29.4965 9.60813 29.6385 8.25577C29.6656 7.99206 29.6859 7.72834 29.6385 7.47139C29.4762 6.65321 27.9481 5.51046 27.2246 6.39626C27.0555 6.60588 27.0217 6.88988 27.0014 7.16035C26.7445 10.2437 26.3726 13.3745 25.3042 16.2888" fill="#B73E93"/>
<path d="M25.2904 17.9459C24.9117 17.8309 24.5263 17.7295 24.1273 17.7025C23.8095 17.6822 23.4917 17.7025 23.1874 17.601C22.9913 17.5334 22.8155 17.4185 22.633 17.3238C21.8892 16.9249 21.0439 16.8167 20.246 16.5597C19.9147 16.4515 19.4819 16.3163 19.2047 16.1067C18.8869 15.8632 18.7246 15.417 18.4542 15.1262C18.4068 15.0789 18.3595 15.0315 18.2919 15.0248C18.1972 15.0248 18.1296 15.1194 18.0823 15.2006C17.7036 15.8362 17.0747 16.3298 16.3647 16.5462C16.1754 16.607 15.9726 16.6409 15.7968 16.7288C15.4113 16.9181 15.2964 17.175 14.8163 17.1209C14.5931 17.0939 14.37 16.9519 14.3227 16.7288C14.2956 16.5868 14.343 16.4448 14.3092 16.3028C14.2686 16.1202 14.1063 15.985 13.9237 15.9376C13.7412 15.8903 13.5518 15.9038 13.3692 15.9376C12.8486 16.0188 12.3347 16.1811 11.8614 16.411C11.7735 16.4515 11.6855 16.4989 11.6247 16.58C11.4962 16.749 11.5503 16.9857 11.6044 17.1886C11.6518 17.4049 11.6923 17.6281 11.645 17.8377C11.5977 18.0541 11.4489 18.2569 11.2393 18.311C11.0702 18.3584 10.8944 18.311 10.7254 18.2772C9.67731 18.1082 8.52104 18.8182 8.91322 19.988C9.0417 20.3734 9.11608 20.7791 9.12284 21.1848C9.12284 21.3539 9.12283 21.5364 9.02816 21.6852C8.85236 21.9827 8.44662 22.0436 8.19643 22.2802C7.97329 22.4898 7.89895 22.8279 7.93952 23.1322C7.98009 23.4365 8.12882 23.7137 8.29111 23.9774C8.46015 24.2479 8.65627 24.5116 8.90646 24.7077C9.52178 25.1811 10.4617 25.1675 11.0635 24.6739C11.2393 24.5319 11.4151 24.3426 11.645 24.3629C11.8208 24.3764 11.956 24.5116 12.071 24.6469C12.3144 24.9173 12.5105 25.1946 12.8418 25.3231C13.1732 25.4448 13.5721 25.5732 13.9237 25.6138C14.1874 25.6409 14.4579 25.6071 14.7014 25.7152C15.1273 25.9046 15.2693 26.4658 15.648 26.7363C15.8103 26.8512 15.9996 26.9053 16.1687 27.0135C16.7367 27.3651 16.8516 28.136 16.8854 28.8054C16.8989 29.13 16.9395 29.5019 17.2032 29.698C17.4263 29.8602 17.7171 29.8332 17.9944 29.8602C18.6705 29.9279 19.2859 30.3877 19.5428 31.0165C19.7998 31.6454 19.6713 32.4095 19.2317 32.9234C19.0965 33.0856 18.9275 33.2276 18.8193 33.4102C18.7111 33.5928 18.6773 33.843 18.8057 34.012C18.968 34.2216 19.2859 34.1946 19.5428 34.2622C19.82 34.3366 20.0635 34.5462 20.1717 34.8167C20.2528 35.0195 20.2798 35.2765 20.4692 35.3847C20.8478 35.3711 21.1048 35.006 21.2941 34.6747C21.6187 34.1134 22.1191 33.4913 22.3219 32.876C22.4707 32.4095 22.4842 31.8753 22.6194 31.3952C22.7006 31.1179 22.7817 30.8407 22.9237 30.5973C23.1942 30.1375 23.6608 29.8332 24.1408 29.6033C24.6209 29.3734 25.1348 29.2043 25.5879 28.9339C25.7772 28.8189 25.9598 28.6904 26.0747 28.5079C26.1829 28.3456 26.237 28.1495 26.2911 27.9602C26.3858 27.6153 26.4737 27.2772 26.5684 26.9324C26.663 26.5808 26.7577 26.2291 26.7982 25.864C26.8659 25.2554 26.7712 24.6266 26.9132 24.0315C27.0823 23.3013 27.5826 22.7062 27.9748 22.0706C28.3264 21.4959 28.5901 20.8264 28.4481 20.1435C28.3061 19.4673 28.0762 18.7438 27.3933 18.5139C26.8794 18.3448 26.3452 18.284 25.8245 18.1285C25.6487 18.0744 25.4662 18.0203 25.2904 17.9662" fill="#379248"/>
</svg>
